<svg width="60" height="60" viewBox="0 0 60 60" fill="none" xmlns="http://www.w3.org/2000/svg">
<path fill-rule="evenodd" clip-rule="evenodd" d="M29.984 59.968C46.498 59.968 59.968 46.499 59.968 29.984C59.968 13.469 46.498 0 29.984 0C13.47 0 0 13.47 0 29.984C0 46.498 13.469 59.968 29.984 59.968Z" fill="#E9F4F9"/>
<path fill-rule="evenodd" clip-rule="evenodd" d="M29.984 0C46.544 0 59.968 13.424 59.968 29.984C59.968 46.544 46.544 59.968 29.984 59.968L29.943 59.967V0.001L29.984 0Z" fill="#D6E3EA"/>
<path fill-rule="evenodd" clip-rule="evenodd" d="M18.299 11.195C21.424 9.687 25.443 8.711 29.99 8.616V38.933C16.618 32.506 18.452 21.344 18.299 11.195Z" fill="#3392D0"/>
<path fill-rule="evenodd" clip-rule="evenodd" d="M19.47 10.673C22.403 9.464 25.992 8.7 29.99 8.616V20.265C24.972 18.031 21.187 14.647 19.47 10.673Z" fill="#55A6DC"/>
<path fill-rule="evenodd" clip-rule="evenodd" d="M17.863 10.716C19.63 9.864 21.677 9.177 23.94 8.718C25.82 8.337 27.848 8.113 29.989 8.081V9.143C27.92 9.175 25.961 9.391 24.148 9.759C22.108 10.173 20.251 10.779 18.629 11.53C18.64 12.594 18.633 13.669 18.625 14.747C18.558 23.686 18.493 32.892 29.99 38.441V39.619C17.422 33.818 17.494 24.138 17.564 14.743C17.573 13.555 17.582 12.371 17.564 11.201L17.559 10.863L17.863 10.716Z" fill="white"/>
<path fill-rule="evenodd" clip-rule="evenodd" d="M41.623 11.195C38.498 9.687 34.479 8.711 29.932 8.616V38.933C43.303 32.506 41.47 21.344 41.623 11.195Z" fill="#1784C7"/>
<path fill-rule="evenodd" clip-rule="evenodd" d="M41.623 11.195C38.498 9.687 34.479 8.711 29.932 8.616V20.24C33.27 21.736 37.158 22.721 41.348 23.032C41.798 19.155 41.564 15.1 41.623 11.195Z" fill="#3392D0"/>
<path fill-rule="evenodd" clip-rule="evenodd" d="M42.059 10.716C40.292 9.864 38.245 9.177 35.982 8.718C34.102 8.337 32.074 8.113 29.933 8.081V9.143C32.002 9.175 33.96 9.391 35.774 9.759C37.814 10.173 39.67 10.779 41.293 11.53C41.281 12.594 41.289 13.669 41.297 14.747C41.364 23.686 41.429 32.892 29.932 38.441V39.619C42.5 33.818 42.429 24.138 42.359 14.743C42.35 13.555 42.341 12.371 42.359 11.201L42.364 10.863L42.059 10.716Z" fill="#E9F4F9"/>
<path d="M35.9445 17.6681L36.8756 17.7891C36.7739 18.4309 36.5127 18.9341 36.0918 19.2988C35.6745 19.66 35.1607 19.8407 34.5505 19.8407C33.786 19.8407 33.1705 19.5917 32.7041 19.0937C32.2412 18.5922 32.0097 17.875 32.0097 16.9421C32.0097 16.3389 32.1097 15.8111 32.3096 15.3587C32.5095 14.9064 32.8128 14.5679 33.2196 14.3435C33.63 14.1155 34.0753 14.0016 34.5558 14.0016C35.1625 14.0016 35.6587 14.1559 36.0445 14.4645C36.4303 14.7696 36.6775 15.2044 36.7862 15.7691L35.8656 15.9111C35.778 15.5359 35.6219 15.2535 35.3975 15.0642C35.1765 14.8748 34.9082 14.7801 34.5926 14.7801C34.1157 14.7801 33.7281 14.9519 33.4301 15.2956C33.132 15.6358 32.9829 16.1759 32.9829 16.9158C32.9829 17.6663 33.1267 18.2117 33.4143 18.5518C33.7018 18.892 34.0771 19.0621 34.54 19.0621C34.9117 19.0621 35.2221 18.9481 35.4711 18.7202C35.7201 18.4922 35.8779 18.1415 35.9445 17.6681Z" fill="#E9F4F9"/>
<path fill-rule="evenodd" clip-rule="evenodd" d="M34.865 12.139C36.335 12.139 37.667 12.735 38.631 13.699C39.594 14.662 40.191 15.994 40.191 17.464C40.191 18.935 39.595 20.266 38.631 21.23C37.667 22.193 36.336 22.79 34.865 22.79C33.395 22.79 32.063 22.194 31.1 21.23C30.136 20.266 29.54 18.935 29.54 17.464C29.54 15.994 30.136 14.662 31.1 13.699C32.063 12.735 33.394 12.139 34.865 12.139ZM37.92 14.409C37.138 13.627 36.058 13.143 34.865 13.143C33.672 13.143 32.591 13.627 31.81 14.409C31.028 15.191 30.544 16.271 30.544 17.464C30.544 18.657 31.028 19.738 31.81 20.52C32.592 21.302 33.672 21.786 34.865 21.786C36.058 21.786 37.138 21.302 37.92 20.52C38.702 19.738 39.186 18.658 39.186 17.464C39.186 16.271 38.702 15.191 37.92 14.409Z" fill="#E9F4F9"/>
<path fill-rule="evenodd" clip-rule="evenodd" d="M10.387 45.823L10.051 46.732H9.089L10.743 42.352H11.645L13.319 46.732H12.347L11.979 45.809L10.387 45.823ZM10.667 45.078H11.719L11.186 43.711L10.667 45.078ZM14.509 44.723V46.732H13.559V42.352H14.509V43.985H16.101V42.352H17.064V46.732H16.101V44.723H14.509ZM19.333 43.083V46.732H18.37V43.083H17.263V42.352H20.454V43.083H19.333ZM21.609 44.995L23.215 42.886V42.352H24.165V46.732H23.215V44.094L21.609 46.178V46.732H20.659V42.352H21.609V44.995Z" fill="#F28E00"/>
<path fill-rule="evenodd" clip-rule="evenodd" d="M25.64 43.083V46.732H24.69V42.352H28.196V46.732H27.232V43.083H25.64ZM31.093 43.097H30.28C30.28 43.712 30.249 44.29 30.188 44.83C30.127 45.371 29.992 45.84 29.785 46.238C29.579 46.635 29.278 46.835 28.887 46.835C28.745 46.835 28.622 46.815 28.518 46.773V46.055C28.752 46.055 28.931 45.922 29.053 45.655C29.175 45.389 29.254 45.074 29.29 44.711C29.326 44.348 29.345 43.958 29.345 43.54C29.345 43.407 29.347 43.22 29.353 42.979C29.357 42.738 29.36 42.528 29.36 42.351H32.024V46.731H31.095V43.097H31.093ZM33.492 45.823L33.156 46.732H32.194L33.848 42.352H34.75L36.424 46.732H35.453L35.085 45.809L33.492 45.823ZM33.772 45.078H34.824L34.291 43.711L33.772 45.078ZM39.315 43.083H37.614V46.732H36.664V42.352H39.315V43.083ZM40.476 44.995L42.082 42.886V42.352H43.032V46.732H42.082V44.094L40.476 46.178V46.732H39.526V42.352H40.476V44.995ZM44.501 45.823L44.165 46.732H43.203L44.857 42.352H45.759L47.433 46.732H46.462L46.094 45.809L44.501 45.823ZM44.781 45.078H45.833L45.3 43.711L44.781 45.078ZM49.757 43.083V46.732H48.793V43.083H47.686V42.352H50.877V43.083H49.757Z" fill="#3392D0"/>
<path fill-rule="evenodd" clip-rule="evenodd" d="M30.074 42.352V45.466C30.124 45.267 30.162 45.055 30.188 44.831C30.25 44.291 30.28 43.713 30.28 43.098H31.093V46.733H32.022V42.353H30.074V42.352ZM33.492 45.823L33.156 46.732H32.194L33.848 42.352H34.75L36.424 46.732H35.453L35.085 45.809L33.492 45.823ZM33.772 45.078H34.824L34.291 43.711L33.772 45.078ZM39.315 43.083H37.614V46.732H36.664V42.352H39.315V43.083ZM40.476 44.995L42.082 42.886V42.352H43.032V46.732H42.082V44.094L40.476 46.178V46.732H39.526V42.352H40.476V44.995ZM44.501 45.823L44.165 46.732H43.203L44.857 42.352H45.759L47.433 46.732H46.462L46.094 45.809L44.501 45.823ZM44.781 45.078H45.833L45.3 43.711L44.781 45.078ZM49.757 43.083V46.732H48.793V43.083H47.686V42.352H50.877V43.083H49.757Z" fill="#1784C7"/>
</svg>
