<svg width="61" height="60" viewBox="0 0 61 60" fill="none" xmlns="http://www.w3.org/2000/svg">
<circle cx="30" cy="30" r="30" fill="#BCD4E8"/>
<path fill-rule="evenodd" clip-rule="evenodd" d="M30.041 0C46.601 0 60.025 13.424 60.025 29.984C60.025 46.544 46.601 59.968 30.041 59.968L30 59.967V0.001L30.041 0Z" fill="#9CC2E2"/>
<path d="M30.5 11.9C22.9834 11.9 15.1652 13.5939 15.1652 13.5939L15.1588 13.6003C14.419 13.7484 13.7532 14.148 13.2746 14.7313C12.7961 15.3146 12.5341 16.0455 12.5333 16.8V26.6C12.5333 43.5834 28.9017 50.6821 28.9017 50.6821C29.3899 50.956 29.9402 51.0999 30.5 51.1C31.0576 51.0988 31.6056 50.955 32.0919 50.6821H32.0982C32.0999 50.6821 48.4667 43.5834 48.4667 26.6V16.8C48.467 16.0435 48.2049 15.3104 47.7249 14.7257C47.2449 14.141 46.5769 13.741 45.8348 13.5939C45.8348 13.5939 38.0166 11.9 30.5 11.9Z" fill="#1E73B7"/>
<path d="M29.9565 34L29.0767 31.1113H24.6523L23.7725 34H21L25.2832 21.8145H28.4292L32.729 34H29.9565ZM28.4624 28.9531C27.6489 26.3356 27.1896 24.8553 27.0845 24.5122C26.9849 24.1691 26.9129 23.8979 26.8687 23.6987C26.686 24.4071 26.1631 26.1585 25.2998 28.9531H28.4624ZM30.1385 32.813C30.1385 32.3481 30.263 31.9967 30.512 31.7588C30.7611 31.5208 31.1235 31.4019 31.5994 31.4019C32.0587 31.4019 32.4129 31.5236 32.6619 31.7671C32.9165 32.0106 33.0438 32.3592 33.0438 32.813C33.0438 33.2502 32.9165 33.596 32.6619 33.8506C32.4074 34.0996 32.0532 34.2241 31.5994 34.2241C31.1346 34.2241 30.7749 34.1024 30.5203 33.8589C30.2658 33.6099 30.1385 33.2612 30.1385 32.813Z" fill="#F08A00"/>
<path d="M31.9723 21.8643H35.7492C37.4702 21.8643 38.7181 22.1105 39.4928 22.603C40.2731 23.09 40.6632 23.8675 40.6632 24.9355C40.6632 25.6605 40.4917 26.2554 40.1486 26.7202C39.811 27.1851 39.36 27.4645 38.7955 27.5586V27.6416C39.5648 27.8132 40.1181 28.1341 40.4557 28.6045C40.7988 29.0749 40.9704 29.7002 40.9704 30.4805C40.9704 31.5872 40.5691 32.4505 39.7667 33.0703C38.9699 33.6901 37.8852 34 36.5128 34H31.9723V21.8643ZM34.5455 26.6704H36.0397C36.737 26.6704 37.2405 26.5625 37.5504 26.3467C37.8659 26.1309 38.0236 25.7739 38.0236 25.2759C38.0236 24.811 37.852 24.479 37.5089 24.2798C37.1714 24.075 36.6346 23.9727 35.8986 23.9727H34.5455V26.6704ZM34.5455 28.7124V31.875H36.2223C36.9306 31.875 37.4536 31.7394 37.7912 31.4683C38.1287 31.1971 38.2975 30.7821 38.2975 30.2231C38.2975 29.216 37.5781 28.7124 36.1393 28.7124H34.5455Z" fill="#E9F4F9"/>
</svg>
