<svg width="316" height="50" viewBox="0 0 316 50" fill="none" xmlns="http://www.w3.org/2000/svg">
<path d="M63.39 35.36C61.73 35.36 60.12 35.14 58.56 34.7C57.02 34.24 55.78 33.65 54.84 32.93L56.49 29.27C57.39 29.93 58.46 30.46 59.7 30.86C60.94 31.26 62.18 31.46 63.42 31.46C64.8 31.46 65.82 31.26 66.48 30.86C67.14 30.44 67.47 29.89 67.47 29.21C67.47 28.71 67.27 28.3 66.87 27.98C66.49 27.64 65.99 27.37 65.37 27.17C64.77 26.97 63.95 26.75 62.91 26.51C61.31 26.13 60 25.75 58.98 25.37C57.96 24.99 57.08 24.38 56.34 23.54C55.62 22.7 55.26 21.58 55.26 20.18C55.26 18.96 55.59 17.86 56.25 16.88C56.91 15.88 57.9 15.09 59.22 14.51C60.56 13.93 62.19 13.64 64.11 13.64C65.45 13.64 66.76 13.8 68.04 14.12C69.32 14.44 70.44 14.9 71.4 15.5L69.9 19.19C67.96 18.09 66.02 17.54 64.08 17.54C62.72 17.54 61.71 17.76 61.05 18.2C60.41 18.64 60.09 19.22 60.09 19.94C60.09 20.66 60.46 21.2 61.2 21.56C61.96 21.9 63.11 22.24 64.65 22.58C66.25 22.96 67.56 23.34 68.58 23.72C69.6 24.1 70.47 24.7 71.19 25.52C71.93 26.34 72.3 27.45 72.3 28.85C72.3 30.05 71.96 31.15 71.28 32.15C70.62 33.13 69.62 33.91 68.28 34.49C66.94 35.07 65.31 35.36 63.39 35.36ZM85.7009 34.22C85.2409 34.56 84.6709 34.82 83.9909 35C83.3309 35.16 82.6309 35.24 81.8909 35.24C79.9709 35.24 78.4809 34.75 77.4209 33.77C76.3809 32.79 75.8609 31.35 75.8609 29.45V22.82H73.3709V19.22H75.8609V15.29H80.5409V19.22H84.5609V22.82H80.5409V29.39C80.5409 30.07 80.7109 30.6 81.0509 30.98C81.4109 31.34 81.9109 31.52 82.5509 31.52C83.2909 31.52 83.9209 31.32 84.4409 30.92L85.7009 34.22ZM104.588 18.86V35H100.148V33.08C99.528 33.78 98.788 34.32 97.928 34.7C97.068 35.06 96.138 35.24 95.138 35.24C93.018 35.24 91.338 34.63 90.098 33.41C88.858 32.19 88.238 30.38 88.238 27.98V18.86H92.918V27.29C92.918 29.89 94.008 31.19 96.188 31.19C97.308 31.19 98.208 30.83 98.888 30.11C99.568 29.37 99.908 28.28 99.908 26.84V18.86H104.588ZM125.364 12.74V35H120.894V33.14C119.734 34.54 118.054 35.24 115.854 35.24C114.334 35.24 112.954 34.9 111.714 34.22C110.494 33.54 109.534 32.57 108.834 31.31C108.134 30.05 107.784 28.59 107.784 26.93C107.784 25.27 108.134 23.81 108.834 22.55C109.534 21.29 110.494 20.32 111.714 19.64C112.954 18.96 114.334 18.62 115.854 18.62C117.914 18.62 119.524 19.27 120.684 20.57V12.74H125.364ZM116.664 31.4C117.844 31.4 118.824 31 119.604 30.2C120.384 29.38 120.774 28.29 120.774 26.93C120.774 25.57 120.384 24.49 119.604 23.69C118.824 22.87 117.844 22.46 116.664 22.46C115.464 22.46 114.474 22.87 113.694 23.69C112.914 24.49 112.524 25.57 112.524 26.93C112.524 28.29 112.914 29.38 113.694 30.2C114.474 31 115.464 31.4 116.664 31.4ZM145.505 26.99C145.505 27.05 145.475 27.47 145.415 28.25H133.205C133.425 29.25 133.945 30.04 134.765 30.62C135.585 31.2 136.605 31.49 137.825 31.49C138.665 31.49 139.405 31.37 140.045 31.13C140.705 30.87 141.315 30.47 141.875 29.93L144.365 32.63C142.845 34.37 140.625 35.24 137.705 35.24C135.885 35.24 134.275 34.89 132.875 34.19C131.475 33.47 130.395 32.48 129.635 31.22C128.875 29.96 128.495 28.53 128.495 26.93C128.495 25.35 128.865 23.93 129.605 22.67C130.365 21.39 131.395 20.4 132.695 19.7C134.015 18.98 135.485 18.62 137.105 18.62C138.685 18.62 140.115 18.96 141.395 19.64C142.675 20.32 143.675 21.3 144.395 22.58C145.135 23.84 145.505 25.31 145.505 26.99ZM137.135 22.16C136.075 22.16 135.185 22.46 134.465 23.06C133.745 23.66 133.305 24.48 133.145 25.52H141.095C140.935 24.5 140.495 23.69 139.775 23.09C139.055 22.47 138.175 22.16 137.135 22.16ZM158.431 18.62C160.431 18.62 162.041 19.22 163.261 20.42C164.501 21.62 165.121 23.4 165.121 25.76V35H160.441V26.48C160.441 25.2 160.161 24.25 159.601 23.63C159.041 22.99 158.231 22.67 157.171 22.67C155.991 22.67 155.051 23.04 154.351 23.78C153.651 24.5 153.301 25.58 153.301 27.02V35H148.621V18.86H153.091V20.75C153.711 20.07 154.481 19.55 155.401 19.19C156.321 18.81 157.331 18.62 158.431 18.62ZM179.773 34.22C179.313 34.56 178.743 34.82 178.063 35C177.403 35.16 176.703 35.24 175.963 35.24C174.043 35.24 172.553 34.75 171.493 33.77C170.453 32.79 169.933 31.35 169.933 29.45V22.82H167.443V19.22H169.933V15.29H174.613V19.22H178.633V22.82H174.613V29.39C174.613 30.07 174.783 30.6 175.123 30.98C175.483 31.34 175.983 31.52 176.623 31.52C177.363 31.52 177.993 31.32 178.513 30.92L179.773 34.22ZM182.4 18.86H187.08V35H182.4V18.86ZM184.74 16.61C183.88 16.61 183.18 16.36 182.64 15.86C182.1 15.36 181.83 14.74 181.83 14C181.83 13.26 182.1 12.64 182.64 12.14C183.18 11.64 183.88 11.39 184.74 11.39C185.6 11.39 186.3 11.63 186.84 12.11C187.38 12.59 187.65 13.19 187.65 13.91C187.65 14.69 187.38 15.34 186.84 15.86C186.3 16.36 185.6 16.61 184.74 16.61ZM198.354 28.67L196.104 30.89V35H191.424V12.74H196.104V25.34L202.944 18.86H208.524L201.804 25.7L209.124 35H203.454L198.354 28.67ZM213.291 35.24C212.471 35.24 211.781 34.96 211.221 34.4C210.661 33.84 210.381 33.14 210.381 32.3C210.381 31.44 210.661 30.75 211.221 30.23C211.781 29.69 212.471 29.42 213.291 29.42C214.111 29.42 214.801 29.69 215.361 30.23C215.921 30.75 216.201 31.44 216.201 32.3C216.201 33.14 215.921 33.84 215.361 34.4C214.801 34.96 214.111 35.24 213.291 35.24Z" fill="#00324F"/>
<path d="M227.053 35.24C225.353 35.24 223.823 34.89 222.463 34.19C221.123 33.47 220.073 32.48 219.313 31.22C218.553 29.96 218.173 28.53 218.173 26.93C218.173 25.33 218.553 23.9 219.313 22.64C220.073 21.38 221.123 20.4 222.463 19.7C223.823 18.98 225.353 18.62 227.053 18.62C228.753 18.62 230.273 18.98 231.613 19.7C232.953 20.4 234.003 21.38 234.763 22.64C235.523 23.9 235.903 25.33 235.903 26.93C235.903 28.53 235.523 29.96 234.763 31.22C234.003 32.48 232.953 33.47 231.613 34.19C230.273 34.89 228.753 35.24 227.053 35.24ZM227.053 31.4C228.253 31.4 229.233 31 229.993 30.2C230.773 29.38 231.163 28.29 231.163 26.93C231.163 25.57 230.773 24.49 229.993 23.69C229.233 22.87 228.253 22.46 227.053 22.46C225.853 22.46 224.863 22.87 224.083 23.69C223.303 24.49 222.913 25.57 222.913 26.93C222.913 28.29 223.303 29.38 224.083 30.2C224.863 31 225.853 31.4 227.053 31.4ZM248.841 18.62C250.841 18.62 252.451 19.22 253.671 20.42C254.911 21.62 255.531 23.4 255.531 25.76V35H250.851V26.48C250.851 25.2 250.571 24.25 250.011 23.63C249.451 22.99 248.641 22.67 247.581 22.67C246.401 22.67 245.461 23.04 244.761 23.78C244.061 24.5 243.711 25.58 243.711 27.02V35H239.031V18.86H243.501V20.75C244.121 20.07 244.891 19.55 245.811 19.19C246.731 18.81 247.741 18.62 248.841 18.62ZM259.773 12.74H264.453V35H259.773V12.74ZM268.797 18.86H273.477V35H268.797V18.86ZM271.137 16.61C270.277 16.61 269.577 16.36 269.037 15.86C268.497 15.36 268.227 14.74 268.227 14C268.227 13.26 268.497 12.64 269.037 12.14C269.577 11.64 270.277 11.39 271.137 11.39C271.997 11.39 272.697 11.63 273.237 12.11C273.777 12.59 274.047 13.19 274.047 13.91C274.047 14.69 273.777 15.34 273.237 15.86C272.697 16.36 271.997 16.61 271.137 16.61ZM287.63 18.62C289.63 18.62 291.24 19.22 292.46 20.42C293.7 21.62 294.32 23.4 294.32 25.76V35H289.64V26.48C289.64 25.2 289.36 24.25 288.8 23.63C288.24 22.99 287.43 22.67 286.37 22.67C285.19 22.67 284.25 23.04 283.55 23.78C282.85 24.5 282.5 25.58 282.5 27.02V35H277.82V18.86H282.29V20.75C282.91 20.07 283.68 19.55 284.6 19.19C285.52 18.81 286.53 18.62 287.63 18.62ZM314.548 26.99C314.548 27.05 314.518 27.47 314.458 28.25H302.248C302.468 29.25 302.988 30.04 303.808 30.62C304.628 31.2 305.648 31.49 306.868 31.49C307.708 31.49 308.448 31.37 309.088 31.13C309.748 30.87 310.358 30.47 310.918 29.93L313.408 32.63C311.888 34.37 309.668 35.24 306.748 35.24C304.928 35.24 303.318 34.89 301.918 34.19C300.518 33.47 299.438 32.48 298.678 31.22C297.918 29.96 297.538 28.53 297.538 26.93C297.538 25.35 297.908 23.93 298.648 22.67C299.408 21.39 300.438 20.4 301.738 19.7C303.058 18.98 304.528 18.62 306.148 18.62C307.728 18.62 309.158 18.96 310.438 19.64C311.718 20.32 312.718 21.3 313.438 22.58C314.178 23.84 314.548 25.31 314.548 26.99ZM306.178 22.16C305.118 22.16 304.228 22.46 303.508 23.06C302.788 23.66 302.348 24.48 302.188 25.52H310.138C309.978 24.5 309.538 23.69 308.818 23.09C308.098 22.47 307.218 22.16 306.178 22.16Z" fill="#B2E228"/>
<path d="M21.8173 43.1481L24.272 33.2271L37.5171 37.5228C37.5171 37.5228 35.2669 38.8013 35.0112 39.7218C34.8578 40.2332 35.4715 41.5628 35.2158 42.0231C33.9373 44.3755 34.4487 45.0403 37.5171 49.5406C39.2047 52.0975 21.8173 43.1481 21.8173 43.1481Z" fill="#FF8A54"/>
<path d="M24.0674 34.0964L23.8628 34.9146C24.5787 36.8579 26.522 41.7673 34.3975 43.7618C34.5509 43.2504 34.8066 42.6878 35.1646 42.0742C35.4203 41.6139 34.8066 40.2843 34.96 39.7729C35.2669 38.8524 37.4659 37.5739 37.4659 37.5739L24.5787 33.3805C24.3742 33.585 24.2208 33.8407 24.0674 34.0964Z" fill="#C66340"/>
<path d="M32.7611 14.3567C32.7611 14.3567 36.4431 18.5501 37.1591 20.2888C37.517 21.1071 37.6705 23.1015 38.1819 23.8174C39.1024 25.0448 42.9378 26.2721 42.9378 26.2721C42.9378 26.2721 42.7844 27.3461 42.1196 28.4711C41.8128 29.0337 41.3014 29.5451 41.3014 29.5451C41.3014 29.5451 41.5059 30.0565 41.7616 30.4144C42.0173 30.7213 42.4264 31.0281 42.3753 31.2327C42.1707 32.102 39.0512 32.8691 39.0512 32.8691C39.0512 32.8691 41.0968 32.8691 42.273 32.9714C42.7844 33.0225 41.915 33.9431 42.2219 35.3238C42.4264 36.2955 43.4492 36.858 43.5004 37.8296C43.5515 38.4433 42.631 39.8241 41.915 40.2332C39.1024 41.8697 31.994 40.7446 29.079 39.3127C25.4481 37.5228 25.1924 36.0909 25.1924 36.0909L20.9479 25.7096L21.8172 17.9364L32.7611 14.3567Z" fill="#FFA969"/>
<path d="M22.482 28.0108C22.482 28.0108 23.8628 29.0848 24.4253 29.2893C24.7833 29.4428 25.8572 29.545 25.8572 29.545C25.8572 29.545 24.0674 26.2721 24.3742 24.9936C24.4765 24.6356 25.397 23.4594 25.397 23.4594C25.397 23.4594 23.1469 18.908 27.6471 16.4533C31.1757 14.51 30.7666 10.2655 24.1185 12.669C21.6638 13.5384 17.317 14.9703 15.9362 17.1693C13.6349 20.9536 11.5382 22.5389 11.5382 22.5389C11.5382 22.5389 12.3053 23.9708 13.5326 27.3972C14.4532 29.9541 13.4304 33.7385 16.0896 34.7612C18.2375 35.5795 20.1296 36.9602 21.1524 38.1876C22.4309 39.7218 22.2263 41.4094 22.2263 41.4094C22.2263 41.4094 23.4537 39.7218 23.9139 37.5739C24.681 33.8919 22.482 28.0108 22.482 28.0108Z" fill="#A0481C"/>
<path d="M31.0223 26.3744C30.7154 25.5562 31.4314 24.4822 31.5848 23.7151C31.9428 22.0787 33.4258 21.0048 34.4998 20.2888C34.8066 20.0842 37.0056 23.1526 36.3408 23.6129C34.9089 24.5845 34.0906 26.2721 33.5281 27.0903C33.4258 27.346 31.8916 28.5222 31.0223 26.3744Z" fill="#FF8A54"/>
<path d="M35.7272 24.1754C35.0624 24.1242 34.3465 25.4539 33.9885 27.0392C33.9373 27.2949 35.5738 27.1415 36.8011 25.9653C37.3125 25.505 36.9546 24.9936 36.5454 24.5845C36.2897 24.3799 36.2386 24.2265 35.7272 24.1754Z" fill="white"/>
<path d="M35.8806 23.9197C36.392 23.7152 36.6988 23.7663 36.9545 23.9197C36.9034 23.3572 35.6249 23.1015 34.8066 23.3061C32.9656 23.7152 31.0735 27.2949 31.2269 28.062C31.3292 28.4711 32.9656 28.3689 33.3236 28.4711C33.3747 27.3972 33.7838 24.738 35.8806 23.9197Z" fill="#FFA969"/>
<path d="M36.8011 24.5845C37.159 25.0448 37.159 25.6584 36.8522 25.9141C36.5454 26.1698 35.9828 25.9653 35.6249 25.505C35.2669 25.0448 35.2669 24.4311 35.5737 24.1754C35.8806 23.9197 36.4431 24.1242 36.8011 24.5845Z" fill="#58595B"/>
<path d="M36.4673 25.4278C36.6032 25.3265 36.5903 25.0792 36.4384 24.8754C36.2865 24.6715 36.0532 24.5884 35.9173 24.6896C35.7814 24.7909 35.7944 25.0382 35.9463 25.242C36.0981 25.4459 36.3314 25.529 36.4673 25.4278Z" fill="#211F1F"/>
<path d="M36.1362 23.9708C36.1362 23.8174 36.085 23.7151 36.0339 23.5617C34.1417 23.8685 33.4769 27.2949 33.4769 27.346C33.4769 27.4483 33.5792 27.5506 33.6815 27.5506C33.7838 27.5506 33.886 27.4483 33.886 27.346C33.886 27.2437 34.5509 24.2777 36.1362 23.9708Z" fill="#C96335"/>
<path d="M31.2269 26.5278C31.2269 26.6812 30.8178 26.4255 30.7667 26.221C30.4598 23.2549 34.193 19.5729 34.8578 19.8797C35.2158 20.0331 35.3181 20.5957 35.3692 20.9536C35.3692 21.6696 31.4826 23.9197 31.2269 26.5278Z" fill="#A0481C"/>
<path d="M21.2035 33.4316C23.2491 35.0681 25.8061 35.2727 26.88 33.8919C27.9539 32.5111 24.5276 32.3577 24.1696 29.7496C23.5048 24.9936 20.4876 26.6301 19.4137 28.0109C18.3397 29.3916 19.158 31.8463 21.2035 33.4316Z" fill="#FFA969"/>
<path d="M22.1241 31.2838C22.6355 32.2043 23.556 32.6646 24.1696 32.3577C24.7833 31.9997 24.0162 31.2327 23.5048 30.3121C22.9934 29.3916 22.8912 28.6757 22.2775 29.0337C21.6638 29.2894 21.6127 30.3121 22.1241 31.2838Z" fill="#FF8A54"/>
<path d="M16.9364 35.936L35.7815 17.3186L25.0352 6.44084L6.19007 25.0582L16.9364 35.936Z" fill="#0B2025"/>
<path d="M2.04866 32.839L33.1904 2.0737L31.1418 8.57801e-06L4.12763e-05 30.7653L2.04866 32.839Z" fill="#4E6566"/>
<path d="M8.00952 28.7268C8.00952 29.5962 8.72547 30.261 9.5437 30.261C10.4131 30.261 11.0779 29.5451 11.0779 28.7268C11.0779 27.8575 10.3619 27.1926 9.5437 27.1926C8.67433 27.1415 8.00952 27.8575 8.00952 28.7268Z" fill="#FBC41C"/>
<path d="M6.73108 41.1025V34.8635C6.73108 33.3294 8.00956 32.0509 9.54375 32.0509C11.0779 32.0509 12.3564 33.3294 12.3564 34.8635V41.1025H6.73108Z" fill="#FBC41C"/>
<path d="M8.82783 33.2782H10.2086L9.90176 20.0843L8.521 20.9536L8.82783 33.2782Z" fill="#FBC41C"/>
<path d="M14.3896 15.1419L8.53235 20.9284L9.25116 21.656L15.1084 15.8695L14.3896 15.1419Z" fill="#FBC41C"/>
<path opacity="0.4" d="M28.1585 9.54956C26.7778 11.5951 22.4309 17.9876 21.2036 19.982C19.7717 22.3855 21.8173 25.6073 24.2719 28.2666C24.3231 28.3177 24.4254 28.3689 24.4765 28.42L35.7783 17.2205L28.1585 9.54956Z" fill="#4E6566"/>
</svg>
