<?xml version="1.0" encoding="utf-8"?><svg id="Слой_1" data-name="Слой 1" xmlns="http://www.w3.org/2000/svg" xmlns:xlink="http://www.w3.org/1999/xlink" viewBox="0 0 860 250">
  <defs>
    <style>
      .cls-1 {
        fill: url(#Безымянный_градиент);
      }

      .cls-2 {
        fill: none;
        stroke-linecap: round;
        stroke-linejoin: round;
      }

      .cls-2, .cls-3 {
        stroke: #fff;
        stroke-width: 0.5px;
      }

      .cls-3, .cls-5 {
        fill: #fff;
      }

      .cls-3 {
        stroke-miterlimit: 10;
      }

      .cls-4 {
        fill: #e6e6e6;
      }

      .cls-6 {
        fill: #481118;
        opacity: 0.35;
      }

      .cls-7 {
        fill: #fbfbf6;
      }

      .cls-8 {
        fill: #efefe1;
      }

      .cls-9 {
        fill: #3c6081;
      }

      .cls-10 {
        fill: #613d3c;
      }

      .cls-11 {
        fill: #8ca0b4;
      }

      .cls-12 {
        fill: #a6a47e;
      }

      .cls-13 {
        fill: #db5164;
      }

      .cls-14 {
        fill: #c3b902;
      }

      .cls-15 {
        fill: #e1c85e;
      }

      .cls-16 {
        fill: #006c99;
      }

      .cls-17 {
        fill: #eeedc7;
      }

      .cls-18 {
        fill: #3b89b8;
      }

      .cls-19 {
        fill: #51a6d8;
      }

      .cls-20 {
        fill: #4b9dcd;
      }

      .cls-21 {
        fill: #61b5e5;
      }

      .cls-22 {
        fill: #0c618c;
      }

      .cls-23 {
        fill: #005278;
      }

      .cls-24 {
        fill: #36495f;
      }

      .cls-25 {
        fill: #eac252;
      }

      .cls-26 {
        fill: #d0a32a;
      }

      .cls-27 {
        fill: #ddaf34;
      }
    </style>
    <radialGradient id="Безымянный_градиент" data-name="Безымянный градиент" cx="262.5" cy="165" r="316.3" gradientTransform="matrix(1, 0, 0, -1, 0, 252)" gradientUnits="userSpaceOnUse">
      <stop offset="0" stop-color="#94ceff"/>
      <stop offset="1" stop-color="#3facff"/>
    </radialGradient>
  </defs>
  <title>1Монтажная область 1</title>
  <rect class="cls-1" width="860" height="250"/>
  <path class="cls-2" d="M15.15,65.64a4.58,4.58,0,0,1-4.58,4.58h0a4.58,4.58,0,0,1,4.58,4.58h0a4.58,4.58,0,0,1,4.58-4.58h0a4.58,4.58,0,0,1-4.58-4.58Z"/>
  <path class="cls-2" d="M95.88,149.52c.34-2.09.72-4.38,1-5.92"/>
  <path class="cls-2" d="M99.79,144c-.25,1.52-.63,3.82-1,5.92"/>
  <polygon class="cls-2" points="92.36 152.43 95.86 149.63 98.78 150.12 101.02 153.87 92.36 152.43"/>
  <path class="cls-2" d="M110.2,127.42l7.72,1.28-.28,1.09a26.26,26.26,0,0,1-2.84,6.44c-2.63,4.19-6,6.13-9.74,5.63m2-2c4.76-.7,7.37-6.92,8.25-9.47l-5.39-.89"/>
  <path class="cls-2" d="M92,126.48l-5.41-.9c0,2.75.49,9.68,5,11.75m.59,2.36c-3.49-.86-5.9-3.74-7-8.37a25.72,25.72,0,0,1-.6-7l.08-1.13,7.57,1.26"/>
  <path class="cls-2" d="M92.87,122c-.54,3.12-1.77,10.74-1.51,13.24.53,5.13,3.26,7.77,6.65,8.33l.35.06.35.05c3.39.57,6.82-1.05,9-5.73,1.08-2.35,2.45-10.23,2.94-13.27"/>
  <path class="cls-2" d="M101.19,153.89l-8.83-1.46a2.35,2.35,0,0,0-2.7,1.94h0l13.46,2.23A2.36,2.36,0,0,0,101.19,153.89Z"/>
  <rect class="cls-2" x="91.65" y="151.54" width="8.15" height="15.95" transform="translate(-77.29 227.87) rotate(-80.59)"/>
  <rect class="cls-2" x="93.64" y="155.37" width="2.43" height="18.64" transform="translate(-83.12 231.37) rotate(-80.6)"/>
  <path class="cls-2" d="M112.4,123.47a1.36,1.36,0,0,1-1.56,1.12h0l-17.72-2.93A1.37,1.37,0,0,1,92,120.09h0A1.35,1.35,0,0,1,93.56,119l17.72,2.93a1.37,1.37,0,0,1,1.12,1.57Z"/>
  <path class="cls-2" d="M44.78,227.92,34.58,223l.29-.62a1.08,1.08,0,0,0-1.95-.93h0l-3,6.16a1.1,1.1,0,1,0,2,.93h0l.29-.61,10.21,4.89a9.56,9.56,0,1,0,2.36-4.92Z"/>
  <path class="cls-2" d="M54.62,227.4a3.28,3.28,0,0,0-4.64.34,2.54,2.54,0,0,0-.36.5,3.66,3.66,0,0,0-.34,1.9,2,2,0,0,0-1.88,2.11,1.8,1.8,0,0,0,.13.61,2.84,2.84,0,0,0-1.27,3.82,2.74,2.74,0,0,0,.89,1c-1.11,1.1,0,3,1.06,3.46,0,0-.94,1.55-.47,1.78A9.57,9.57,0,0,0,56.67,226c-.22-.12-.44-.22-.67-.32C55.53,225.49,54.62,227.4,54.62,227.4Z"/>
  <polygon class="cls-2" points="150.3 8.79 148.76 5.57 144.22 6.25 146.9 11.88 150.3 8.79"/>
  <polygon class="cls-2" points="153.87 5.26 148.79 5.62 150.27 8.74 153.87 5.26"/>
  <polygon class="cls-2" points="127.5 16.53 127.5 16.53 128.37 18.36 129.27 20.26 146.9 11.88 146 9.98 145.13 8.15 145.13 8.15 144.22 6.25 126.59 14.63 127.5 16.53"/>
  <line class="cls-2" x1="145.17" y1="9.38" x2="128.32" y2="17.44"/>
  <rect class="cls-2" x="27.5" y="112.37" width="9.7" height="9.7" rx="2.2" ry="2.2" transform="translate(-42.33 21.25) rotate(-22.46)"/>
  <path class="cls-3" d="M30.84,115.05a2.42,2.42,0,0,1,.5-.27,3.38,3.38,0,0,1,.54-.17l.57,1.37c.07.17.14.37.21.55l.54-.24,1.27-.52a3,3,0,0,1,.25.47,3.13,3.13,0,0,1,.16.52l-1.27.52-.55.22c.08.17.17.37.23.53l.57,1.37a2.3,2.3,0,0,1-.49.26,2.72,2.72,0,0,1-.55.18l-.57-1.38c-.07-.16-.14-.36-.21-.54-.18.07-.37.17-.54.24l-1.27.52a2.73,2.73,0,0,1-.25-.48,2.16,2.16,0,0,1-.16-.51l1.27-.52.55-.22c-.07-.18-.17-.37-.24-.54Z"/>
  <rect class="cls-2" x="38.68" y="107.75" width="9.7" height="9.7" rx="2.2" ry="2.2" transform="translate(-39.72 25.17) rotate(-22.46)"/>
  <path class="cls-3" d="M42.37,113.66a2.09,2.09,0,0,1-.26-.46,2.46,2.46,0,0,1-.15-.53l2.76-1.14A2.78,2.78,0,0,1,45,112a1.75,1.75,0,0,1,.14.51Z"/>
  <rect class="cls-2" x="31.94" y="123.11" width="9.7" height="9.7" rx="2.2" ry="2.2" transform="translate(-46.09 23.76) rotate(-22.46)"/>
  <rect class="cls-2" x="43.13" y="118.48" width="9.7" height="9.7" rx="2.2" ry="2.2" transform="translate(-43.48 27.68) rotate(-22.46)"/>
  <path class="cls-3" d="M47.44,126.08a2.1,2.1,0,0,1-.55-.13,1.26,1.26,0,0,1-.46-.3l.65-1.55c.05-.15.13-.31.19-.47l-.47-.2-1.55-.64a1.49,1.49,0,0,1,.1-.55,1.62,1.62,0,0,1,.31-.46l1.55.64c.15.07.32.16.47.22a4.89,4.89,0,0,0,.2-.48l.63-1.57a1.75,1.75,0,0,1,.55.12,1.52,1.52,0,0,1,.48.31l-.65,1.54c-.06.16-.15.34-.22.49l.49.18,1.56.65a1.63,1.63,0,0,1-.12.54,1.38,1.38,0,0,1-.31.47l-1.55-.65-.48-.2-.18.47Z"/>
  <path class="cls-3" d="M34.66,129.4a2.32,2.32,0,0,1-.24-.47,3.16,3.16,0,0,1-.17-.52l4.65-1.92a2.73,2.73,0,0,1,.25.48,2.16,2.16,0,0,1,.16.51Zm.54-3.66a1.4,1.4,0,0,1,1.15-.47,1.28,1.28,0,0,1,.3.43,1.48,1.48,0,0,1,.09.51,1.38,1.38,0,0,1-.52.37,1.24,1.24,0,0,1-.63.11,1.28,1.28,0,0,1-.3-.43A1.54,1.54,0,0,1,35.2,125.74Zm1.64,4a1.38,1.38,0,0,1,.52-.37,1.5,1.5,0,0,1,.63-.11,1.13,1.13,0,0,1,.29.43,1.3,1.3,0,0,1,.1.52,1.38,1.38,0,0,1-.52.37,1.5,1.5,0,0,1-.63.11,1.23,1.23,0,0,1-.3-.44,1.26,1.26,0,0,1-.09-.54Z"/>
  <path class="cls-2" d="M55.74,63.25l.52,1.24a1.62,1.62,0,0,0,2.11.89h0l.86-.35a8.41,8.41,0,0,0,1.69,1.68l-.35.86a1.61,1.61,0,0,0,.87,2.12h0l1.24.51a1.61,1.61,0,0,0,2.12-.87v0l.35-.85a9.56,9.56,0,0,0,2.39,0l.36.86a1.64,1.64,0,0,0,2.14.88l1.24-.52a1.65,1.65,0,0,0,.88-2.14l-.36-.85A9,9,0,0,0,73.54,65l.85.35a1.64,1.64,0,0,0,2.13-.89L77,63.21a1.65,1.65,0,0,0-.89-2.14l-.86-.35a8.7,8.7,0,0,0,0-2.39L76.1,58a1.64,1.64,0,0,0,.9-2.14h0l-.5-1.24a1.63,1.63,0,0,0-2.13-.88h0l-.85.35a9,9,0,0,0-1.69-1.68l.35-.85a1.62,1.62,0,0,0-.87-2.13h0L70,48.89a1.64,1.64,0,0,0-2.14.89l-.35.85a8.62,8.62,0,0,0-2.38,0l-.36-.85a1.63,1.63,0,0,0-2.13-.88h0l-1.24.51a1.64,1.64,0,0,0-.88,2.14l.36.85a9.07,9.07,0,0,0-1.69,1.7l-.85-.36a1.65,1.65,0,0,0-2.14.89l-.51,1.25A1.64,1.64,0,0,0,56.61,58l.86.35a8.7,8.7,0,0,0,0,2.39l-.85.36a1.63,1.63,0,0,0-.89,2.13Zm5-1.35a6.11,6.11,0,1,1,8,3.28A6.11,6.11,0,0,1,60.74,61.9Z"/>
  <path class="cls-2" d="M75.12,43.07v1.07a1.3,1.3,0,0,0,1.26,1.33h.74a6.55,6.55,0,0,0,.68,1.77l-.53.51a1.3,1.3,0,0,0,0,1.83l.74.77a1.3,1.3,0,0,0,1.83,0l.53-.51a7.25,7.25,0,0,0,1.73.77v.73a1.3,1.3,0,0,0,1.26,1.33h1.07a1.3,1.3,0,0,0,1.33-1.26v-.74A6.55,6.55,0,0,0,87.53,50l.51.53a1.3,1.3,0,0,0,1.83,0l.77-.74a1.3,1.3,0,0,0,0-1.83l-.51-.53A7.25,7.25,0,0,0,91,45.69h.73A1.3,1.3,0,0,0,93,44.43V43.36A1.3,1.3,0,0,0,91.74,42H91a7.45,7.45,0,0,0-.68-1.77l.52-.51a1.3,1.3,0,0,0,0-1.83l-.74-.77a1.3,1.3,0,0,0-1.83,0l-.53.51A7.2,7.2,0,0,0,86,37v-.73a1.29,1.29,0,0,0-1.25-1.33H83.67a1.28,1.28,0,0,0-1.32,1.24v.75a6.93,6.93,0,0,0-1.77.69L80.1,37a1.32,1.32,0,0,0-1.84,0l-.77.74a1.3,1.3,0,0,0,0,1.83l.51.53a7.25,7.25,0,0,0-.77,1.73H76.5A1.3,1.3,0,0,0,75.12,43Zm4.07.63a5,5,0,1,1,0,.06Z"/>
  <path class="cls-2" d="M44.74,172.81H63.83a3.42,3.42,0,0,1,3.42,3.42v12.25a3.42,3.42,0,0,1-3.42,3.42H52.08l-5.63,5.62V191.9H44.74a3.43,3.43,0,0,1-3.41-3.42V176.23A3.43,3.43,0,0,1,44.74,172.81Z"/>
  <path class="cls-2" d="M59,182.56a2.12,2.12,0,1,0,2.13-2.11h0A2.12,2.12,0,0,0,59,182.56Z"/>
  <path class="cls-2" d="M52.17,182.56a2.12,2.12,0,1,0,2.13-2.11h0A2.12,2.12,0,0,0,52.17,182.56Z"/>
  <path class="cls-2" d="M45.33,182.56a2.12,2.12,0,1,0,2.13-2.11h0a2.1,2.1,0,0,0-2.11,2.11Z"/>
  <polygon class="cls-2" points="27.09 12.55 31.83 19.68 39.68 18.43 34.97 25.44 37.55 33.05 29.94 30.47 23.5 35.28 23.6 27.25 16.95 22.04 24.8 20.79 27.09 12.55"/>
  <path class="cls-2" d="M140.47,75.14a1.88,1.88,0,1,1-.05,2.66,1.88,1.88,0,0,1,.05-2.66Z"/>
  <path class="cls-2" d="M134.27,81.11a1.87,1.87,0,1,1-.05,2.65A1.89,1.89,0,0,1,134.27,81.11Z"/>
  <path class="cls-2" d="M122.16,92.77a1.88,1.88,0,1,1,0,2.66,1.89,1.89,0,0,1,0-2.66Z"/>
  <path class="cls-2" d="M130.19,64.46a1.87,1.87,0,1,1-.05,2.65A1.89,1.89,0,0,1,130.19,64.46Z"/>
  <path class="cls-2" d="M138.44,66.61a1.87,1.87,0,1,1-.05,2.65,1.87,1.87,0,0,1,.05-2.65Z"/>
  <path class="cls-2" d="M125.59,79a1.87,1.87,0,1,1,0,2.65,1.86,1.86,0,0,1,0-2.65Z"/>
  <path class="cls-2" d="M119.62,84.73a1.87,1.87,0,1,1-.05,2.65A1.89,1.89,0,0,1,119.62,84.73Z"/>
  <path class="cls-2" d="M124,70.43a1.87,1.87,0,1,1,0,2.65A1.88,1.88,0,0,1,124,70.43Z"/>
  <path class="cls-2" d="M111.87,82.09a1.87,1.87,0,1,1-.05,2.65A1.89,1.89,0,0,1,111.87,82.09Z"/>
  <path class="cls-2" d="M118.92,85.49l-4.07-1.22"/>
  <path class="cls-2" d="M122.92,92.33,121.53,88"/>
  <path class="cls-2" d="M125.76,73.64c.37,1.45.89,3.45,1.24,4.82"/>
  <path class="cls-2" d="M130.14,67.11l-3.37,3.24"/>
  <path class="cls-2" d="M137.82,67.46l-4.41-1.15"/>
  <path class="cls-2" d="M141.29,74.49c-.33-1.42-.78-3.3-1.11-4.68"/>
  <path class="cls-2" d="M137.1,81c1-1,2.32-2.24,3.29-3.18"/>
  <path class="cls-2" d="M128.92,80.49l4.76,1.41"/>
  <line class="cls-2" x1="122.27" y1="84.78" x2="125.54" y2="81.63"/>
  <path class="cls-2" d="M111,41.28l-1.75,2.4a5.82,5.82,0,0,1-1.29-.33,5.4,5.4,0,0,1-1.37-.71v-.18l8.49-11a15.5,15.5,0,0,1,1.77.5,11.09,11.09,0,0,1,1.65.74L118,46.58a4.57,4.57,0,0,1-1.83-.26c-.94-.33-1.29-.83-1.21-2.24l.08-1.35-.73-.24-2.63-.93C111.48,41.48,111.2,41.38,111,41.28Zm1.5-2.08.75.25,1.36.48.66.25.09-1.26c.08-1.16.22-2.84.33-4.18h-.11c-.55,1-1.5,2.31-2.14,3.23Z"/>
  <path class="cls-2" d="M130.65,209.39c3-.94,5.48-.36,6.34,2.39a3.48,3.48,0,0,1-1,3.59,4.24,4.24,0,0,1,3.82,3c1,3-.77,5.07-4.11,6.1-1.68.52-3.5,1-5.39,1.58l-.2-.1-4.55-14.68.1-.2C127.37,210.46,129.08,209.88,130.65,209.39Zm.11,6.52,1.55-.48a1.76,1.76,0,0,0,1.45-2,2,2,0,0,0-.1-.35,1.71,1.71,0,0,0-2-1.27,1.63,1.63,0,0,0-.37.13c-.39.12-1,.32-1.58.47Zm.77,2.48,1.32,4.25,1.83-.59a2,2,0,0,0,1.69-2.27,1.78,1.78,0,0,0-.14-.5,2.1,2.1,0,0,0-2.52-1.57,2.29,2.29,0,0,0-.37.12Z"/>
  <path class="cls-2" d="M12.37,165.83a6.59,6.59,0,0,1-6.58,6.6h0a6.59,6.59,0,0,1,6.6,6.6h0a6.61,6.61,0,0,1,6.6-6.61,6.59,6.59,0,0,1-6.6-6.6Z"/>
  <circle class="cls-2" cx="105.57" cy="210.99" r="5.29"/>
  <circle class="cls-4" cx="175.5" cy="62.5" r="1.5"/>
  <circle class="cls-4" cx="200.5" cy="62.5" r="1.5"/>
  <g>
    <path class="cls-5" d="M630.35,98.5h-7.84V117h-4.38V94.6h16.61V117h-4.39Z"/>
    <path class="cls-5" d="M637.71,109a9,9,0,0,1,2-6.26,7.12,7.12,0,0,1,5.56-2.19,8.28,8.28,0,0,1,3.33.61,6.34,6.34,0,0,1,2.34,1.71,7.38,7.38,0,0,1,1.39,2.67,12.17,12.17,0,0,1,.46,3.46,9.09,9.09,0,0,1-2,6.26,7.11,7.11,0,0,1-5.56,2.19,8.23,8.23,0,0,1-3.32-.61,6.5,6.5,0,0,1-2.36-1.71,7.39,7.39,0,0,1-1.4-2.67A12.16,12.16,0,0,1,637.71,109Zm4.29,0a9.15,9.15,0,0,0,.19,2,5.39,5.39,0,0,0,.58,1.57,2.66,2.66,0,0,0,1,1,2.8,2.8,0,0,0,1.48.37,2.76,2.76,0,0,0,2.44-1.19,6.81,6.81,0,0,0,.8-3.74,7.52,7.52,0,0,0-.74-3.57,2.62,2.62,0,0,0-2.5-1.36,2.86,2.86,0,0,0-2.4,1.15A6.46,6.46,0,0,0,642,109Z"/>
    <path class="cls-5" d="M664.37,104.68H661.2c-.13,1.52-.28,3-.45,4.51a21.78,21.78,0,0,1-.81,4,8.17,8.17,0,0,1-1.52,2.88,3.18,3.18,0,0,1-2.5,1.1,5.34,5.34,0,0,1-2.62-.47l.51-3.4a2.68,2.68,0,0,0,1,.19,1.47,1.47,0,0,0,1.12-.54,4.74,4.74,0,0,0,.81-2,26.64,26.64,0,0,0,.55-3.84q.21-2.43.3-6.16h11v16h-4.16Z"/>
    <path class="cls-5" d="M684.94,115.62a7.94,7.94,0,0,1-2.61,1.3,11.4,11.4,0,0,1-3.5.53q-3.87,0-5.66-2.26a9.66,9.66,0,0,1-1.79-6.19q0-4.23,2-6.34a7.5,7.5,0,0,1,5.67-2.11,8.84,8.84,0,0,1,2.36.32,5.64,5.64,0,0,1,2.05,1.06,5.14,5.14,0,0,1,1.44,2,7.84,7.84,0,0,1,.55,3.11c0,.44,0,.92-.08,1.44s-.14,1-.24,1.6h-9.57a4.74,4.74,0,0,0,1,3,4,4,0,0,0,3,1,6.38,6.38,0,0,0,2.34-.4,6.5,6.5,0,0,0,1.58-.82ZM679,103.88a2.89,2.89,0,0,0-2.4,1,4.87,4.87,0,0,0-.94,2.6h5.92a4,4,0,0,0-.52-2.65A2.35,2.35,0,0,0,679,103.88Z"/>
    <path class="cls-5" d="M690.06,110.38v-2.92h2a3.44,3.44,0,0,0,1.84-.44,1.38,1.38,0,0,0,.72-1.19,1.33,1.33,0,0,0-.64-1.23,4.12,4.12,0,0,0-2-.37,7,7,0,0,0-2.2.32,8,8,0,0,0-1.54.67l-.9-3.16a10.22,10.22,0,0,1,2.55-1,14,14,0,0,1,3.37-.4,6.78,6.78,0,0,1,4.12,1,3.5,3.5,0,0,1,1.36,3,4.3,4.3,0,0,1-.15,1.11,3.73,3.73,0,0,1-.46,1.07,4.27,4.27,0,0,1-.79.91,3.12,3.12,0,0,1-1.1.62v.13a3.9,3.9,0,0,1,2.4,1.36,4.36,4.36,0,0,1,.7,2.61,4.47,4.47,0,0,1-.41,1.9,4,4,0,0,1-1.27,1.52,6.65,6.65,0,0,1-2.12,1,10.92,10.92,0,0,1-3,.38,11,11,0,0,1-3.06-.37,10.15,10.15,0,0,1-2.16-.84l.89-3.24a7.11,7.11,0,0,0,1.78.68,9.76,9.76,0,0,0,2.32.25c1.94,0,2.91-.62,2.91-1.85a1.28,1.28,0,0,0-.75-1.22,6.84,6.84,0,0,0-2.8-.38Z"/>
    <path class="cls-5" d="M711.6,110.7h-5.22V117h-4.16V101h4.16v6h5.22v-6h4.16v16H711.6Z"/>
    <path class="cls-5" d="M723.57,106.7a13.12,13.12,0,0,1,1.55-.18c.52,0,1,0,1.42,0a8.43,8.43,0,0,1,2.72.37,4.48,4.48,0,0,1,1.76,1,3.85,3.85,0,0,1,1,1.58,6.61,6.61,0,0,1,.29,2,7.74,7.74,0,0,1-.38,2.53,4.14,4.14,0,0,1-1.25,1.81,5.86,5.86,0,0,1-2.24,1.09,13.64,13.64,0,0,1-3.39.36c-1.22,0-2.27,0-3.16-.06s-1.7-.1-2.44-.16V101h4.16Zm0,6.81a9.08,9.08,0,0,0,1.82.19,3,3,0,0,0,2-.52,2.16,2.16,0,0,0,.57-1.65,2,2,0,0,0-.57-1.55,2.79,2.79,0,0,0-1.92-.53,7.56,7.56,0,0,0-1.92.22ZM734.09,101h4.16v16h-4.16Z"/>
    <path class="cls-5" d="M754.7,115.62a7.94,7.94,0,0,1-2.61,1.3,11.4,11.4,0,0,1-3.5.53q-3.87,0-5.66-2.26a9.66,9.66,0,0,1-1.8-6.19c0-2.82.68-4.93,2-6.34a7.47,7.47,0,0,1,5.66-2.11,8.92,8.92,0,0,1,2.37.32,5.64,5.64,0,0,1,2.05,1.06,5.14,5.14,0,0,1,1.44,2,7.85,7.85,0,0,1,.54,3.11,12.49,12.49,0,0,1-.08,1.44c0,.51-.13,1-.23,1.6h-9.57a4.74,4.74,0,0,0,1,3,4,4,0,0,0,3,1,6.38,6.38,0,0,0,2.34-.4,6.5,6.5,0,0,0,1.58-.82Zm-5.94-11.74a2.89,2.89,0,0,0-2.4,1,4.87,4.87,0,0,0-.94,2.6h5.92a4,4,0,0,0-.52-2.65A2.35,2.35,0,0,0,748.76,103.88Z"/>
    <path class="cls-5" d="M615.73,150.67l.25-3.33h-.16l-1.28,2.76-3,5H610l-3.29-5-1.22-2.76h-.19l.41,3.3V158H602V142h4.32l3.68,6,.9,2h.13L612,148l3.4-5.95h4.35v16h-4Z"/>
    <path class="cls-5" d="M623.25,142.93a13,13,0,0,1,3-.91,19.08,19.08,0,0,1,3.68-.34,8.26,8.26,0,0,1,2.78.4,4.28,4.28,0,0,1,1.78,1.14,4.38,4.38,0,0,1,.93,1.76,9,9,0,0,1,.27,2.3c0,.94,0,1.88-.1,2.83s-.1,1.89-.11,2.8,0,1.81.08,2.67a9.68,9.68,0,0,0,.48,2.45h-3.39l-.67-2.21h-.16a5.64,5.64,0,0,1-1.78,1.72,5.39,5.39,0,0,1-2.93.72,5.72,5.72,0,0,1-2-.34,4.28,4.28,0,0,1-1.54-1,4.34,4.34,0,0,1-1-1.47,4.85,4.85,0,0,1-.35-1.91,4.45,4.45,0,0,1,.65-2.48,4.82,4.82,0,0,1,1.89-1.63,9.51,9.51,0,0,1,2.94-.86,21.24,21.24,0,0,1,3.83-.15,4.13,4.13,0,0,0-.26-2.57c-.32-.52-1-.79-2.14-.79a14.73,14.73,0,0,0-2.64.26,9.53,9.53,0,0,0-2.29.67Zm5.28,11.9a3.15,3.15,0,0,0,2-.56,3.92,3.92,0,0,0,1.09-1.2V151a12.16,12.16,0,0,0-1.9,0,6.8,6.8,0,0,0-1.62.29,2.71,2.71,0,0,0-1.12.64,1.42,1.42,0,0,0-.42,1.05,1.84,1.84,0,0,0,.53,1.4A2,2,0,0,0,628.53,154.83Z"/>
    <path class="cls-5" d="M650.73,145.68h-4.51V158h-4.29V145.68h-4.51V142h13.31Z"/>
    <path class="cls-5" d="M665.14,156.62a7.94,7.94,0,0,1-2.61,1.3,11.51,11.51,0,0,1-3.51.53q-3.87,0-5.66-2.26a9.72,9.72,0,0,1-1.79-6.19q0-4.23,2-6.34a7.51,7.51,0,0,1,5.67-2.11,9,9,0,0,1,2.37.32,5.6,5.6,0,0,1,2,1.06,5.14,5.14,0,0,1,1.44,2,7.66,7.66,0,0,1,.55,3.11c0,.44,0,.92-.08,1.44s-.14,1-.24,1.6h-9.57a4.69,4.69,0,0,0,1,3,4,4,0,0,0,3,1,6.67,6.67,0,0,0,3.92-1.22Zm-5.94-11.74a2.91,2.91,0,0,0-2.41,1,4.78,4.78,0,0,0-.93,2.6h5.92a4,4,0,0,0-.53-2.65A2.33,2.33,0,0,0,659.2,144.88Z"/>
    <path class="cls-5" d="M668.59,142h3l.48,1.92h.13a5.22,5.22,0,0,1,2-1.79,6,6,0,0,1,2.77-.58,5.41,5.41,0,0,1,4.51,1.91q1.5,1.9,1.5,6.12a13.22,13.22,0,0,1-.48,3.7,7.79,7.79,0,0,1-1.42,2.8,6.25,6.25,0,0,1-2.31,1.76,7.46,7.46,0,0,1-3.12.61,7.35,7.35,0,0,1-1.63-.15,5.48,5.48,0,0,1-1.28-.46v6.56h-4.16Zm7.14,3.07a2.82,2.82,0,0,0-1.91.61,4,4,0,0,0-1.07,1.82v6.66a4.14,4.14,0,0,0,1,.56,3.8,3.8,0,0,0,1.39.21,3.08,3.08,0,0,0,2.69-1.27,7.46,7.46,0,0,0,.89-4.17,6.31,6.31,0,0,0-.7-3.27A2.48,2.48,0,0,0,675.73,145.07Z"/>
    <path class="cls-5" d="M695.5,150.7l.16-2.27h-.09l-1.38,2.34L688.5,158h-2.63V142H690v7.62l-.19,2.17H690l1.31-2.27L697,142h2.62v16H695.5Z"/>
    <path class="cls-5" d="M703.21,142.93a13.33,13.33,0,0,1,3-.91,19.15,19.15,0,0,1,3.68-.34,8.32,8.32,0,0,1,2.79.4,4.24,4.24,0,0,1,1.77,1.14,4.14,4.14,0,0,1,.93,1.76,9,9,0,0,1,.27,2.3c0,.94,0,1.88-.09,2.83s-.1,1.89-.11,2.8,0,1.81.08,2.67a9.68,9.68,0,0,0,.48,2.45h-3.4l-.67-2.21h-.16a5.61,5.61,0,0,1-1.77,1.72,5.41,5.41,0,0,1-2.93.72,5.82,5.82,0,0,1-2-.34,4.15,4.15,0,0,1-1.53-1,4.51,4.51,0,0,1-1-1.47,5,5,0,0,1-.35-1.91,4.45,4.45,0,0,1,.66-2.48,4.82,4.82,0,0,1,1.89-1.63,9.51,9.51,0,0,1,2.94-.86,21.17,21.17,0,0,1,3.82-.15,4.14,4.14,0,0,0-.25-2.57c-.32-.52-1-.79-2.15-.79a14.73,14.73,0,0,0-2.64.26,9.44,9.44,0,0,0-2.28.67Zm5.28,11.9a3.16,3.16,0,0,0,2-.56,3.92,3.92,0,0,0,1.09-1.2V151a12.27,12.27,0,0,0-1.91,0,6.71,6.71,0,0,0-1.61.29,2.64,2.64,0,0,0-1.12.64,1.42,1.42,0,0,0-.42,1.05,1.84,1.84,0,0,0,.53,1.4A2,2,0,0,0,708.49,154.83Z"/>
    <path class="cls-5" d="M727.89,145.68h-3.17c-.13,1.52-.28,3-.45,4.51a21,21,0,0,1-.82,4,8,8,0,0,1-1.52,2.88,3.16,3.16,0,0,1-2.49,1.1,5.41,5.41,0,0,1-2.63-.47l.52-3.4a2.68,2.68,0,0,0,1,.19,1.47,1.47,0,0,0,1.12-.54,4.74,4.74,0,0,0,.81-2,26.64,26.64,0,0,0,.55-3.84q.21-2.43.3-6.16h11v16h-4.16Z"/>
    <path class="cls-5" d="M739.82,147.7a13.37,13.37,0,0,1,1.55-.18c.53,0,1-.05,1.43-.05a8.47,8.47,0,0,1,2.72.37,4.55,4.55,0,0,1,1.76,1,3.85,3.85,0,0,1,1,1.58,6.61,6.61,0,0,1,.29,2,7.47,7.47,0,0,1-.39,2.53,4,4,0,0,1-1.25,1.81,5.79,5.79,0,0,1-2.24,1.09,13.53,13.53,0,0,1-3.39.36q-1.82,0-3.15-.06c-.89,0-1.7-.1-2.45-.16V142h4.16Zm0,6.81a9.18,9.18,0,0,0,1.83.19,3,3,0,0,0,2-.52,2.12,2.12,0,0,0,.58-1.65,2,2,0,0,0-.58-1.55,2.76,2.76,0,0,0-1.92-.53,7.67,7.67,0,0,0-1.92.22ZM750.35,142h4.16v16h-4.16Z"/>
  </g>
  <g>
    <ellipse class="cls-6" cx="219.98" cy="246.9" rx="113.36" ry="6.15"/>
    <g>
      <path class="cls-7" d="M300,243.14H154.88c-9,0-17.45-6.74-17.45-14.6v-2.13c0-7.85,8.47-14.22,17.45-14.22H300s-4.07,5.16-4.07,14.77C295.93,238,300,243.14,300,243.14Z"/>
      <path class="cls-8" d="M301.69,243.8H210.52V213.51h91.17s-4.07,4.83-4.07,14.43C297.62,239,301.69,243.8,301.69,243.8Z"/>
      <path class="cls-9" d="M157.64,243.58c-10,0-17.58-6.45-17.58-14.68v-2.13a13.15,13.15,0,0,1,5.13-10.56,19.76,19.76,0,0,1,12.41-4.15,1.1,1.1,0,0,1,1.17,1.07c0,.59-.24,1.07-.91,1.07-8.68,0-15.16,5.52-15.16,12.57v2.13c0,7,6.41,12.54,15,12.54a1.11,1.11,0,0,1,1.17,1.07A1.2,1.2,0,0,1,157.64,243.58Z"/>
      <path class="cls-10" d="M302.7,244.46H154.48c-10.17,0-19-7-19-15.92v-2.13c0-8.63,8.67-15.53,19-15.53H302.7v3.29H154.48c-8,0-14.42,5.63-14.42,12.24v2.13c0,6.82,6.66,12.63,14.42,12.63H302.7Z"/>
    </g>
    <g>
      <path class="cls-7" d="M267.23,119.36H172.38c-6.73,0-12.56-5.55-12.56-11.44v-1.6c0-5.89,5.83-10,12.56-10h94.85s-3.05,3.79-3.05,11C264.18,115.56,267.23,119.36,267.23,119.36Z"/>
      <path class="cls-8" d="M268.5,119.36H192.74v-23H268.5s-3.05,3.79-3.05,11C265.45,115.56,268.5,119.36,268.5,119.36Z"/>
      <path class="cls-9" d="M174.38,119.19c-7.49,0-13.25-4.83-13.25-11v-1.6a9.91,9.91,0,0,1,3.92-7.91,14.91,14.91,0,0,1,9.34-3.12.84.84,0,0,1,.89.81c0,.44-.57.8-1.07.8-6.51,0-11.76,4.14-11.76,9.42v1.6c0,5.28,5.21,9.41,11.68,9.41.5,0,1,.36,1,.8A.75.75,0,0,1,174.38,119.19Z"/>
      <path class="cls-11" d="M269.12,120h-97c-7.63,0-13.58-5.4-13.58-12.09v-1.6c0-6.48,5.82-12,13.58-12h97V97h-97c-6,0-11,4.39-11,9.35v1.6c0,5.11,5.13,10.12,11,10.12h97Z"/>
    </g>
    <g>
      <path class="cls-7" d="M304.83,162.15H158a11.84,11.84,0,0,1-12-11.63v-1.66c0-6.09,5.06-11.07,12-11.07H304.83s-3.15,4.18-3.15,11.63C301.68,158,304.83,162.15,304.83,162.15Z"/>
      <path class="cls-8" d="M304.83,138.3H197.6v23.54H304.83s-3.15-3.78-3.15-12.32C301.68,142.07,304.83,138.3,304.83,138.3Z"/>
      <path class="cls-12" d="M159.8,163c-7.47,0-13.15-5.49-13.15-12.24v-1.65c0-6.57,5.86-11.91,13.54-11.91a1,1,0,0,1,1,1.07c0,.59-.82,1.07-1.49,1.07-6.34,0-11.76,4.38-11.76,9.77v1.65c0,5.57,5.14,10.1,11.27,10.1.67,0,1.5.47,1.5,1.07S160.48,163,159.8,163Z"/>
      <path class="cls-13" d="M308,163.47H157.7c-7.61,0-14.34-6.11-14.34-12.95v-1.66c0-6.61,6.32-11.73,14.34-11.73H308v2.64H157.7c-4.69,0-11,5.61-11,9.09v1.66a11.35,11.35,0,0,0,11,11H308Z"/>
    </g>
    <g>
      <path class="cls-7" d="M164.13,209.56H203a10.43,10.43,0,0,0,10.77-10.17v-1.48c0-5.43-4.55-9.42-10.77-9.42H164.13s2.81,3.4,2.81,10C166.94,206.16,164.13,209.56,164.13,209.56Z"/>
      <path class="cls-12" d="M203.29,210a.92.92,0,0,1-.75-.37.71.71,0,0,1,.29-1c2-1.09,5.89-.59,5.89-10.39,0-6.15-5.83-9.37-5.89-9.4a.73.73,0,0,1-.29-1.06,1,1,0,0,1,1.21-.24c.27.14,6.72,3.71,6.72,10.7a13.69,13.69,0,0,1-6.72,11.69A1,1,0,0,1,203.29,210Z"/>
      <path class="cls-13" d="M264.51,187.83H161.79v1.32H206.1c1.83,2,4.2,4.68,4.2,8.75a13,13,0,0,1-5,10.34H161.79v2.64H264.51c6.76,0,12.51-4.22,12.51-11.8v-1.47C277,191.59,271.73,187.83,264.51,187.83Z"/>
      <path class="cls-14" d="M232,199.47a22.24,22.24,0,0,0-3.51-11.64h-6.64a22.24,22.24,0,0,1,3.51,11.64c0,7.63-3.51,11.41-3.51,11.41h6.64S232,207.1,232,199.47Z"/>
      <path class="cls-14" d="M263.44,199.47a22.24,22.24,0,0,0-3.51-11.64h-6.64a22.24,22.24,0,0,1,3.51,11.64c0,7.63-3.51,11.41-3.51,11.41h6.64S263.44,207.1,263.44,199.47Z"/>
    </g>
    <g>
      <path class="cls-7" d="M262.27,78.53H222.8c-4.18,0-8.33-3.41-8.33-7.07v-1c0-3.66,4.15-6.42,8.33-6.42h39.47A11.88,11.88,0,0,0,260.38,71C260.38,76.09,262.27,78.53,262.27,78.53Z"/>
      <path class="cls-10" d="M222.17,77.87H181.4c-4.18,0-7.76-3-7.76-6.62v-1c0-3.66,3.58-6.21,7.76-6.21h40.77s-4.25,2.11-4.25,6.58A8.29,8.29,0,0,0,222.17,77.87Z"/>
      <path class="cls-9" d="M222.64,78.59a.61.61,0,0,0,.5-.24.49.49,0,0,0-.19-.71,8.15,8.15,0,0,1-4-7c0-4.13,3.93-6.3,4-6.32a.49.49,0,0,0,.19-.71.78.78,0,0,0-.91-.11c-.19.1-4.43,2.44-4.43,7.14a9.19,9.19,0,0,0,4.53,7.87A.64.64,0,0,0,222.64,78.59Z"/>
      <path class="cls-10" d="M181.45,79.19h82.4V77.87h-82.4c-3.52,0-7.15-3.25-7.15-6.62v-1c0-3.1,3.38-5.55,7.15-5.55h82.4V63.39h-82.4c-4.86,0-8.46,2.82-8.46,6.87v1C173,75.51,176.91,79.19,181.45,79.19Z"/>
    </g>
    <g>
      <path class="cls-7" d="M188.48,63.39H234c2.75,0,4.79-3.13,4.79-6v-.78A4.84,4.84,0,0,0,234,51.54H188.48a12.2,12.2,0,0,1,1.25,5.66A13.33,13.33,0,0,1,188.48,63.39Z"/>
      <path class="cls-9" d="M234.72,63.14a.31.31,0,0,1-.28-.18c-.1-.18-.33-.18-.17-.29a7,7,0,0,0,2.49-5.48,6.09,6.09,0,0,0-2.21-4.73.42.42,0,0,1-.11-.53c.09-.19.59.08.74.19a6.07,6.07,0,0,1,2.23,5.07,7.3,7.3,0,0,1-2.52,5.89A.27.27,0,0,1,234.72,63.14Z"/>
      <path class="cls-15" d="M261.26,50.74H187.61v2h47.86a7.17,7.17,0,0,1,1.78,4.66,8,8,0,0,1-1.81,5.18H187.61v1h73.8c2.91-.09,5.06-2.68,5.06-6.07v-.8C266.47,53.38,264.46,50.74,261.26,50.74Z"/>
    </g>
    <g>
      <rect class="cls-16" x="153.89" y="163.47" width="139.59" height="24.36"/>
      <rect class="cls-17" x="161.79" y="163.47" width="4.61" height="24.36"/>
      <rect class="cls-17" x="169.69" y="163.47" width="5.93" height="24.36"/>
    </g>
    <g>
      <rect class="cls-13" x="157.18" y="79.19" width="129.71" height="15.14"/>
      <rect class="cls-17" x="277.68" y="79.19" width="5.27" height="15.14"/>
      <rect class="cls-17" x="271.09" y="79.19" width="5.27" height="15.14"/>
    </g>
    <g>
      <path class="cls-7" d="M294.14,136.47H201.55c-6,0-10.79-2.38-10.79-7.64v-1.42c0-5.26,4.78-6.08,10.79-6.08h92.59Z"/>
      <path class="cls-8" d="M299.48,136.47H238.83V121.33h60.65A18.56,18.56,0,0,0,298,129,17.61,17.61,0,0,0,299.48,136.47Z"/>
      <path class="cls-15" d="M201.87,137.13h99.51v-1.31H201.87c-6.87,0-9.79-2.47-9.79-7v-1.42c0-3.94,2.63-5.42,9.79-5.42h99.51v-2H201.87c-5.13,0-11.11,1-11.11,7.4v1.42C190.76,132.59,192,137.13,201.87,137.13Z"/>
    </g>
  </g>
  <g>
    <path class="cls-18" d="M376.58,124.13c5.47-4.28,17.21-6.69,26.23-6.44-.55,9.21-.57,15.94-5.06,25.53C391.08,138,383.26,129.35,376.58,124.13Z"/>
    <path class="cls-18" d="M349.59,247.55H350c48.7-1.25,47.89-52.71,50.17-84.42,1.79-24.79-18.81-46.35-50.59-46.3Z"/>
    <path class="cls-19" d="M349.59,247.55H350c14.39-.37,24.45-5.12,31.55-12.45a27.36,27.36,0,0,0,.69-6.1c0-16.13-14.09-29.2-31.47-29.2-.4,0-.79,0-1.19,0Z"/>
    <path class="cls-20" d="M325.19,123.77c-5.46-4.28-17.21-6.69-26.22-6.44.55,9.21.57,15.94,5.06,25.53C310.7,137.65,318.52,129,325.19,123.77Z"/>
    <path class="cls-20" d="M350.55,247.55h-.42c-48.69-1.25-47.89-52.71-50.17-84.42-1.79-24.79,18.82-46.35,50.59-46.3Z"/>
    <path class="cls-21" d="M350.55,247.55h-.42c-13.15-.34-22.69-4.34-29.66-10.63-.76-2.52-1.17,1.48-1.17-7.92s8.92-29.3,31.53-29.18Z"/>
    <path class="cls-22" d="M375.06,133a30.4,30.4,0,0,0-24.88,12.89l-.42-.53a32.22,32.22,0,0,0-24-11.24,30.46,30.46,0,1,0,0,60.92,26.7,26.7,0,0,0,24-14.56A30.46,30.46,0,1,0,375.06,133Z"/>
    <path class="cls-23" d="M375.06,133a30.41,30.41,0,0,0-24.38,12.21v36.5A30.46,30.46,0,1,0,375.06,133Z"/>
    <path class="cls-5" d="M376.7,185.33a19.26,19.26,0,1,0-19.26-19.25A19.29,19.29,0,0,0,376.7,185.33Z"/>
    <path class="cls-5" d="M325.61,185.33a19.26,19.26,0,1,0-19.25-19.25A19.28,19.28,0,0,0,325.61,185.33Z"/>
    <path class="cls-18" d="M354,206.44a3.63,3.63,0,0,1,.23,1.28,3.75,3.75,0,1,1-7.5,0,3.91,3.91,0,0,1,.22-1.28,3.75,3.75,0,0,0,7.05,0Z"/>
    <path class="cls-18" d="M342.6,212a3.63,3.63,0,0,1,.23,1.28,3.75,3.75,0,0,1-7.5,0,3.63,3.63,0,0,1,.23-1.28,3.74,3.74,0,0,0,7,0Z"/>
    <path class="cls-18" d="M365,212a3.87,3.87,0,0,1,.22,1.28,3.75,3.75,0,1,1-7.49,0A3.87,3.87,0,0,1,358,212a3.75,3.75,0,0,0,7.05,0Z"/>
    <path class="cls-18" d="M354,219.5a3.63,3.63,0,0,1,.23,1.28,3.75,3.75,0,0,1-7.5,0,3.87,3.87,0,0,1,.22-1.28,3.75,3.75,0,0,0,7.05,0Z"/>
    <path class="cls-18" d="M342.6,225a3.63,3.63,0,0,1,.23,1.28,3.75,3.75,0,1,1-7.5,0,3.63,3.63,0,0,1,.23-1.28,3.74,3.74,0,0,0,7,0Z"/>
    <path class="cls-18" d="M365,225a3.87,3.87,0,0,1,.22,1.28,3.75,3.75,0,1,1-7.49,0A3.87,3.87,0,0,1,358,225a3.75,3.75,0,0,0,7.05,0Z"/>
    <path class="cls-18" d="M375.88,219.5a3.87,3.87,0,0,1,.22,1.28,3.75,3.75,0,1,1-7.49,0,3.63,3.63,0,0,1,.22-1.28,3.75,3.75,0,0,0,7.05,0Z"/>
    <path class="cls-18" d="M332.88,219.5a3.87,3.87,0,0,1,.22,1.28,3.75,3.75,0,1,1-7.49,0,3.87,3.87,0,0,1,.22-1.28,3.75,3.75,0,0,0,7.05,0Z"/>
    <path class="cls-18" d="M354,230.5a3.63,3.63,0,0,1,.23,1.28,3.75,3.75,0,0,1-7.5,0,3.87,3.87,0,0,1,.22-1.28,3.75,3.75,0,0,0,7.05,0Z"/>
    <path class="cls-18" d="M342.6,236a3.59,3.59,0,0,1,.23,1.28,3.75,3.75,0,0,1-7.5,0,3.59,3.59,0,0,1,.23-1.28,3.74,3.74,0,0,0,7,0Z"/>
    <path class="cls-18" d="M365,236a3.82,3.82,0,0,1,.22,1.28,3.75,3.75,0,0,1-7.49,0A3.82,3.82,0,0,1,358,236a3.75,3.75,0,0,0,7.05,0Z"/>
    <path class="cls-18" d="M375.88,230.5a3.87,3.87,0,0,1,.22,1.28,3.75,3.75,0,1,1-7.49,0,3.63,3.63,0,0,1,.22-1.28,3.75,3.75,0,0,0,7.05,0Z"/>
    <path class="cls-18" d="M332.88,230.5a3.87,3.87,0,0,1,.22,1.28,3.75,3.75,0,1,1-7.49,0,3.87,3.87,0,0,1,.22-1.28,3.75,3.75,0,0,0,7.05,0Z"/>
    <path class="cls-18" d="M354,239.31a3.63,3.63,0,0,1,.23,1.28,3.75,3.75,0,1,1-7.5,0,3.87,3.87,0,0,1,.22-1.28,3.75,3.75,0,0,0,7.05,0Z"/>
    <path class="cls-24" d="M328.76,178.68a12.54,12.54,0,1,0-12.54-12.54A12.56,12.56,0,0,0,328.76,178.68Z"/>
    <rect class="cls-24" x="378.45" y="126.27" width="4.21" height="16.01" transform="translate(171.44 479.42) rotate(-78.22)"/>
    <rect class="cls-24" x="313.19" y="132.18" width="16.01" height="4.21" transform="translate(-20.64 68.35) rotate(-11.77)"/>
    <path class="cls-25" d="M330.64,241.68l2.49.42a1.72,1.72,0,0,1,1.41,2l-1.31,7.77a1.71,1.71,0,0,1-2,1.4l-2.49-.42a1.7,1.7,0,0,1-1.4-2l1.3-7.77A1.73,1.73,0,0,1,330.64,241.68Z"/>
    <path class="cls-26" d="M330.64,241.68l1.15.2L329.91,253l-1.14-.2a1.7,1.7,0,0,1-1.4-2l1.3-7.77A1.73,1.73,0,0,1,330.64,241.68Z"/>
    <path class="cls-25" d="M336.59,241l2.5.42a1.72,1.72,0,0,1,1.4,2l-1.84,10.91a1.72,1.72,0,0,1-2,1.41l-2.49-.42a1.71,1.71,0,0,1-1.4-2l1.83-10.92A1.71,1.71,0,0,1,336.59,241Z"/>
    <path class="cls-26" d="M336.59,241l1.25.21-2.4,14.29-1.25-.21a1.71,1.71,0,0,1-1.4-2l1.83-10.92A1.71,1.71,0,0,1,336.59,241Z"/>
    <path class="cls-25" d="M342.05,243.6l2.49.42a1.71,1.71,0,0,1,1.4,2l-1.31,7.77a1.71,1.71,0,0,1-2,1.4l-2.49-.42a1.7,1.7,0,0,1-1.4-2l1.31-7.77A1.72,1.72,0,0,1,342.05,243.6Z"/>
    <path class="cls-26" d="M342.05,243.6l1.31.22L341.48,255l-1.31-.22a1.7,1.7,0,0,1-1.4-2l1.31-7.77A1.72,1.72,0,0,1,342.05,243.6Z"/>
    <path class="cls-25" d="M357,243.84l2.5-.34a1.7,1.7,0,0,1,1.92,1.47l1.05,7.8A1.71,1.71,0,0,1,361,254.7l-2.51.33a1.7,1.7,0,0,1-1.92-1.46l-1.05-7.81A1.7,1.7,0,0,1,357,243.84Z"/>
    <path class="cls-26" d="M357,243.84l1.15-.16,1.5,11.2-1.15.15a1.7,1.7,0,0,1-1.92-1.46l-1.05-7.81A1.7,1.7,0,0,1,357,243.84Z"/>
    <path class="cls-25" d="M362.49,241.45l2.5-.34a1.72,1.72,0,0,1,1.92,1.47l1.48,11a1.73,1.73,0,0,1-1.47,1.93l-2.5.33-.2,0h-.06a1.73,1.73,0,0,1-1.67-1.48l-1.47-11A1.72,1.72,0,0,1,362.49,241.45Z"/>
    <path class="cls-26" d="M362.49,241.45l1.25-.17,1.93,14.36-1.25.17-.2,0h-.06a1.73,1.73,0,0,1-1.67-1.48l-1.47-11A1.72,1.72,0,0,1,362.49,241.45Z"/>
    <path class="cls-25" d="M368.46,242.3,371,242a1.7,1.7,0,0,1,1.92,1.47l1.05,7.8a1.71,1.71,0,0,1-1.46,1.93l-2.51.33A1.7,1.7,0,0,1,368,252L367,244.22A1.7,1.7,0,0,1,368.46,242.3Z"/>
    <path class="cls-26" d="M368.46,242.3l1.31-.18,1.51,11.2-1.32.17A1.7,1.7,0,0,1,368,252L367,244.22A1.7,1.7,0,0,1,368.46,242.3Z"/>
    <path class="cls-25" d="M341.45,177.81c4.81-7.4,13.32-7.78,18.75-.13-3,4.77-6.46,10.62-9.53,14.93C348.73,189.57,343.11,180.08,341.45,177.81Z"/>
    <path class="cls-27" d="M350.61,172.1c3.4-.06,6.88,1.76,9.59,5.58-3,4.77-6.46,10.62-9.53,14.93l-.06-.08Z"/>
    <path class="cls-22" d="M312.39,210.3c-1.79,6.59-6.2,18.06-10.46,32.08-8.49-13.64-18.21-25.82-14.5-38.36C293.16,184.68,317.47,191.55,312.39,210.3Z"/>
    <path class="cls-24" d="M373.41,179.33a12.54,12.54,0,1,0-12.54-12.54A12.57,12.57,0,0,0,373.41,179.33Z"/>
    <path class="cls-5" d="M379.05,163.6a3.42,3.42,0,1,0-3.43-3.42A3.42,3.42,0,0,0,379.05,163.6Z"/>
    <circle class="cls-5" cx="375.3" cy="163.5" r="1.28"/>
    <path class="cls-5" d="M322.86,163.6a3.42,3.42,0,1,1,3.55-3.42A3.5,3.5,0,0,1,322.86,163.6Z"/>
    <path class="cls-5" d="M326.74,164.78a1.29,1.29,0,1,1,1.33-1.28A1.31,1.31,0,0,1,326.74,164.78Z"/>
    <path class="cls-22" d="M409.79,203.1c3.72,12.54-6,24.72-14.5,38.36-4.26-14-8.67-25.49-10.46-32.08C379.75,190.63,404.06,183.76,409.79,203.1Z"/>
  </g>
</svg>
