<?xml version="1.0" encoding="utf-8"?>
<!-- Generator: Adobe Illustrator 15.1.0, SVG Export Plug-In . SVG Version: 6.00 Build 0)  -->
<!DOCTYPE svg PUBLIC "-//W3C//DTD SVG 1.1//EN" "http://www.w3.org/Graphics/SVG/1.1/DTD/svg11.dtd">
<svg version="1.1" id="Layer_1" xmlns="http://www.w3.org/2000/svg" xmlns:xlink="http://www.w3.org/1999/xlink" x="0px" y="0px"
	 width="36px" height="42px" viewBox="0 0 36 42" enable-background="new 0 0 36 42" xml:space="preserve">
<g id="txt">
	<path fill="#E5E5E5" d="M36,39.789C36,41.006,35.04,42,33.867,42H6.133C4.96,42,4,41.006,4,39.789V2.21C4,0.995,4.96,0,6.133,0
		h20.8c1.174,0,2.791,0.724,3.596,1.609l4.009,4.518C35.342,7.013,36,8.731,36,9.947V39.789z"/>
	<path fill="#717E80" d="M29,21H11v-2h18V21z M29,23H11v2h18V23z M29,27H11v2h18V27z M24,31H11v2h13V31z"/>
	<path fill="#F7F7F7" d="M34.538,6.127l-4.009-4.518c-0.184-0.201-0.412-0.392-0.664-0.57c-0.082-0.057-0.166-0.112-0.253-0.166
		c-0.079-0.049-0.157-0.101-0.239-0.147c-0.197-0.109-0.402-0.209-0.612-0.297c-0.028-0.012-0.056-0.022-0.084-0.033
		c-0.224-0.09-0.45-0.17-0.674-0.231c-0.001,0-0.002,0-0.003-0.001v6.57c0,1.236,0.979,2.246,2.173,2.246h5.715
		C35.667,7.937,35.145,6.795,34.538,6.127z"/>
	<path fill="#2C82C9" d="M23,13c0,1.65-1.35,3-3,3H3c-1.65,0-3-1.35-3-3V9c0-1.65,1.35-3,3-3h17c1.65,0,3,1.35,3,3V13z"/>
	<path fill="#FFFFFF" d="M6.765,10.318H6.171V9.409h0.621V8.157h1.117v1.251h1.044v0.909H7.909v1.854
		c0,0.756,0.594,0.864,0.909,0.864c0.126,0,0.207-0.018,0.207-0.018v1c0,0-0.144,0.027-0.351,0.027
		c-0.639,0-1.909-0.189-1.909-1.729V10.318z M10.923,11.677l-0.756-1.143c-0.09-0.135-0.162-0.153-0.351-0.153H9.483V9.409h0.801
		c0.378,0,0.541,0.081,0.748,0.432l0.45,0.756c0.063,0.117,0.144,0.297,0.144,0.297h0.018c0,0,0.081-0.18,0.144-0.297l0.45-0.756
		c0.207-0.351,0.36-0.432,0.748-0.432h0.792v0.972h-0.324c-0.189,0-0.261,0.018-0.351,0.153l-0.765,1.143L13.84,14h-1.269
		l-0.801-1.278c-0.063-0.09-0.126-0.243-0.126-0.243h-0.018c0,0-0.072,0.144-0.135,0.243L10.698,14H9.429L10.923,11.677z
		 M14.703,10.318h-0.594V9.409h0.622V8.157h1.116v1.251h1.044v0.909h-1.044v1.854c0,0.756,0.594,0.864,0.909,0.864
		c0.126,0,0.207-0.018,0.207-0.018v1c0,0-0.144,0.027-0.351,0.027c-0.639,0-1.909-0.189-1.909-1.729V10.318z"/>
</g>
</svg>
