<svg width="14" height="13" viewBox="0 0 14 13" fill="none" xmlns="http://www.w3.org/2000/svg">
<path d="M12.7016 7.41811H10.887V0.160034H12.7016C12.862 0.160034 13.0158 0.223759 13.1292 0.337188C13.2427 0.450617 13.3064 0.604461 13.3064 0.764874V6.81327C13.3064 6.97369 13.2427 7.12753 13.1292 7.24096C13.0158 7.35439 12.862 7.41811 12.7016 7.41811ZM9.50014 8.20017L5.62916 12.0711C5.57771 12.1227 5.50937 12.154 5.43669 12.1593C5.36401 12.1645 5.29189 12.1433 5.2336 12.0996L4.71767 11.7125C4.57438 11.6049 4.46615 11.4573 4.40662 11.2883C4.3471 11.1193 4.33895 10.9365 4.38319 10.7629L5.08057 8.02295H1.20959C0.888767 8.02295 0.58108 7.89551 0.354221 7.66865C0.127362 7.44179 -8.58307e-05 7.1341 -8.58307e-05 6.81327V5.54069C-0.000248909 5.38261 0.0305738 5.22603 0.0906401 5.0798L1.96262 0.53443C2.00829 0.423613 2.08585 0.328862 2.18546 0.262203C2.28507 0.195544 2.40224 0.159984 2.5221 0.160034H9.07252C9.23293 0.160034 9.38677 0.223759 9.5002 0.337188C9.61363 0.450617 9.67736 0.604461 9.67736 0.764874V7.77255C9.67732 7.93295 9.61357 8.08677 9.50014 8.20017Z" fill="#D62929"/>
</svg>
