<svg width="14" height="13" viewBox="0 0 14 13" fill="none" xmlns="http://www.w3.org/2000/svg">
<path d="M0.60484 4.90195H2.41936V12.16H0.60484C0.444427 12.16 0.290583 12.0963 0.177154 11.9829C0.063724 11.8695 0 11.7156 0 11.5552V5.50679C0 5.34638 0.063724 5.19254 0.177154 5.07911C0.290583 4.96568 0.444427 4.90195 0.60484 4.90195ZM3.80626 4.1199L7.67724 0.248919C7.72868 0.197322 7.79703 0.166035 7.86971 0.160813C7.94238 0.15559 8.0145 0.176782 8.0728 0.220491L8.58873 0.607589C8.73202 0.715156 8.84025 0.862742 8.89977 1.03174C8.9593 1.20073 8.96745 1.38357 8.92321 1.55719L8.22583 4.29711H12.0968C12.4176 4.29711 12.7253 4.42456 12.9522 4.65142C13.179 4.87828 13.3065 5.18597 13.3065 5.50679V6.77938C13.3066 6.93746 13.2758 7.09404 13.2158 7.24027L11.3438 11.7856C11.2981 11.8965 11.2205 11.9912 11.1209 12.0579C11.0213 12.1245 10.9042 12.1601 10.7843 12.16H4.23388C4.07347 12.16 3.91962 12.0963 3.80619 11.9829C3.69276 11.8695 3.62904 11.7156 3.62904 11.5552V4.54752C3.62907 4.38712 3.69282 4.2333 3.80626 4.1199Z" fill="#B2E228"/>
</svg>
