<svg width="40" height="40" viewBox="0 0 40 40" fill="none" xmlns="http://www.w3.org/2000/svg">
<rect x="1.5" y="1.5" width="37" height="37" rx="18.5" stroke="#1CB7AD" stroke-width="3"/>
<path d="M18 12H22C24.1217 12 26.1566 12.8429 27.6569 14.3431C29.1571 15.8434 30 17.8783 30 20C30 22.1217 29.1571 24.1566 27.6569 25.6569C26.1566 27.1571 24.1217 28 22 28V31.5C17 29.5 10 26.5 10 20C10 17.8783 10.8429 15.8434 12.3431 14.3431C13.8434 12.8429 15.8783 12 18 12ZM20 26H22C22.7879 26 23.5681 25.8448 24.2961 25.5433C25.0241 25.2417 25.6855 24.7998 26.2426 24.2426C26.7998 23.6855 27.2417 23.0241 27.5433 22.2961C27.8448 21.5681 28 20.7879 28 20C28 19.2121 27.8448 18.4319 27.5433 17.7039C27.2417 16.9759 26.7998 16.3145 26.2426 15.7574C25.6855 15.2002 25.0241 14.7583 24.2961 14.4567C23.5681 14.1552 22.7879 14 22 14H18C16.4087 14 14.8826 14.6321 13.7574 15.7574C12.6321 16.8826 12 18.4087 12 20C12 23.61 14.462 25.966 20 28.48V26Z" fill="#1CB7AD"/>
<circle cx="33" cy="7" r="7" fill="#D62929"/>
<path d="M34.132 4V11H32.512V5.3H31.112V4H34.132Z" fill="white"/>
</svg>
