<svg width="7" height="10" viewBox="0 0 7 10" fill="none" xmlns="http://www.w3.org/2000/svg">
<path d="M3.50034 10C2.79898 9.99994 2.11382 9.78989 1.53368 9.39707C0.953542 9.00426 0.505193 8.44681 0.246762 7.79699C-0.0116678 7.14717 -0.0682592 6.43497 0.0843258 5.75271C0.236911 5.07045 0.591634 4.44962 1.1025 3.9707C1.7288 3.38326 3.267 2.32558 3.03365 0C5.83377 1.86047 7.23383 3.72093 4.43371 6.51163C4.9004 6.51163 5.60043 6.51163 6.76715 5.36279C6.89315 5.72233 7.00049 6.10884 7.00049 6.51163C7.00049 7.4368 6.63172 8.32408 5.97532 8.97828C5.31891 9.63248 4.42864 10 3.50034 10Z" fill="white"/>
</svg>
