<svg width="11" height="11" viewBox="0 0 11 11" fill="none" xmlns="http://www.w3.org/2000/svg">
<path d="M7.16407 3.08123L4.18878 6.05705C4.13853 6.10557 4.09846 6.16362 4.07089 6.2278C4.04332 6.29198 4.02881 6.361 4.0282 6.43085C4.0276 6.5007 4.04091 6.56997 4.06736 6.63462C4.09381 6.69927 4.13287 6.758 4.18226 6.80739C4.23165 6.85678 4.29038 6.89584 4.35503 6.92229C4.41968 6.94874 4.48895 6.96205 4.55879 6.96144C4.62864 6.96084 4.69767 6.94633 4.76185 6.91876C4.82603 6.89119 4.88407 6.85111 4.9326 6.80087L7.90841 3.82558C8.20439 3.5296 8.37068 3.12816 8.37068 2.70958C8.37068 2.291 8.20439 1.88957 7.90841 1.59359C7.61243 1.29761 7.211 1.13133 6.79242 1.13133C6.37384 1.13133 5.9724 1.29761 5.67642 1.59359L2.70061 4.5694C2.4513 4.8125 2.25275 5.10268 2.11647 5.42311C1.98019 5.74354 1.90889 6.08785 1.9067 6.43605C1.90452 6.78425 1.9715 7.12942 2.10376 7.45153C2.23601 7.77365 2.43092 8.06629 2.67715 8.3125C2.92339 8.5587 3.21607 8.75356 3.5382 8.88577C3.86033 9.01798 4.20551 9.08491 4.55371 9.08268C4.90191 9.08045 5.2462 9.0091 5.56662 8.87277C5.88703 8.73645 6.17718 8.53785 6.42024 8.28852L9.39606 5.31323L10.1399 6.05705L7.16407 9.03286C6.82212 9.37481 6.41616 9.64606 5.96938 9.83112C5.52261 10.0162 5.04375 10.1114 4.56016 10.1114C4.07657 10.1114 3.59772 10.0162 3.15094 9.83112C2.70416 9.64606 2.29821 9.37481 1.95626 9.03286C1.61431 8.69091 1.34306 8.28496 1.158 7.83818C0.972936 7.3914 0.877686 6.91255 0.877686 6.42896C0.877686 5.94537 0.972936 5.46651 1.158 5.01974C1.34306 4.57296 1.61431 4.167 1.95626 3.82505L4.9326 0.849765C5.42866 0.370652 6.09306 0.105542 6.78269 0.111534C7.47232 0.117527 8.13201 0.394143 8.61967 0.881805C9.10733 1.36947 9.38395 2.02916 9.38994 2.71879C9.39593 3.40842 9.13082 4.07281 8.65171 4.56888L5.67642 7.54574C5.52983 7.6923 5.35581 7.80855 5.1643 7.88785C4.97278 7.96715 4.76752 8.00795 4.56024 8.00793C4.35295 8.0079 4.14771 7.96705 3.95621 7.8877C3.76471 7.80836 3.59072 7.69207 3.44417 7.54548C3.29761 7.39889 3.18136 7.22487 3.10206 7.03336C3.02276 6.84184 2.98196 6.63658 2.98198 6.4293C2.98201 6.22201 3.02286 6.01677 3.1022 5.82527C3.18155 5.63377 3.29784 5.45978 3.44443 5.31323L6.42024 2.33741L7.16407 3.08123Z" fill="white"/>
</svg>
