<svg width="20" height="20" viewBox="0 0 20 20" fill="none" xmlns="http://www.w3.org/2000/svg">
<path d="M10 20C15.5228 20 20 15.5228 20 10C20 4.47715 15.5228 0 10 0C4.47715 0 0 4.47715 0 10C0 15.5228 4.47715 20 10 20Z" fill="#4D76A1"/>
<path fill-rule="evenodd" clip-rule="evenodd" d="M9.62237 14.3859H10.4073C10.4073 14.3859 10.6443 14.3598 10.7654 14.2294C10.8768 14.1096 10.8732 13.8846 10.8732 13.8846C10.8732 13.8846 10.8579 12.8315 11.3467 12.6764C11.8285 12.5236 12.4473 13.6942 13.1031 14.1443C13.599 14.485 13.9758 14.4103 13.9758 14.4103L15.7294 14.3859C15.7294 14.3859 16.6467 14.3294 16.2117 13.6081C16.1761 13.5491 15.9584 13.0746 14.9079 12.0995C13.8084 11.079 13.9557 11.2441 15.2802 9.47875C16.0868 8.40366 16.4092 7.74731 16.3085 7.4662C16.2124 7.19845 15.6192 7.26922 15.6192 7.26922L13.6448 7.28152C13.6448 7.28152 13.4984 7.26156 13.3899 7.32644C13.2838 7.39008 13.2156 7.53839 13.2156 7.53839C13.2156 7.53839 12.9031 8.37033 12.4863 9.07784C11.6071 10.5708 11.2556 10.6496 11.1119 10.5569C10.7777 10.3408 10.8611 9.68892 10.8611 9.2258C10.8611 7.77904 11.0805 7.17581 10.4338 7.01966C10.2192 6.96779 10.0612 6.93356 9.51239 6.92803C8.80791 6.92072 8.21163 6.93017 7.87401 7.0956C7.6494 7.20558 7.47613 7.45069 7.58166 7.46477C7.71215 7.48224 8.0077 7.54445 8.16439 7.75783C8.36671 8.03306 8.35958 8.65127 8.35958 8.65127C8.35958 8.65127 8.47581 10.3544 8.0881 10.566C7.82195 10.7111 7.45688 10.4148 6.67307 9.06037C6.27145 8.36659 5.96823 7.59971 5.96823 7.59971C5.96823 7.59971 5.90976 7.45639 5.80548 7.37974C5.67892 7.28687 5.50208 7.25728 5.50208 7.25728L3.6259 7.26958C3.6259 7.26958 3.34425 7.27742 3.24086 7.39989C3.14888 7.5088 3.23356 7.73412 3.23356 7.73412C3.23356 7.73412 4.70241 11.1706 6.36557 12.9024C7.89058 14.4902 9.62237 14.3859 9.62237 14.3859Z" fill="white"/>
</svg>
