<svg width="30" height="30" viewBox="0 0 30 30" fill="none" xmlns="http://www.w3.org/2000/svg">
<path d="M30 15C30 6.70951 23.2912 0 15 0C6.70951 0 0 6.70881 0 15C0 23.2905 6.70881 30 15 30C23.2905 30 30 23.2912 30 15ZM1.99998 15C1.99998 7.83182 7.83176 1.99998 15 1.99998C22.1682 1.99998 28 7.83182 28 15C28 22.1682 22.1682 28 15 28C7.83182 28 1.99998 22.1682 1.99998 15Z" fill="#1CB7AD"/>
<path d="M15.7884 22.6722L21.3711 15.5162C21.8826 14.8607 21.4138 13.9011 20.5826 13.9011H17.7749V7.94281C17.7749 7.39056 17.3272 6.94279 16.7749 6.94279H13.225C12.6728 6.94279 12.225 7.3905 12.225 7.94281V13.9011H9.41725C8.58023 13.9011 8.12109 14.8652 8.62881 15.5162L14.2114 22.6722C14.612 23.1856 15.3889 23.1845 15.7884 22.6722Z" fill="#1CB7AD"/>
</svg>
